<svg width="27" height="26" viewBox="0 0 27 26" fill="none" xmlns="http://www.w3.org/2000/svg">
<g clip-path="url(#clip0_8_101)">
<path d="M22.4517 16.8076C21.0358 15.3917 19.3504 14.3435 17.5117 13.709C19.481 12.3526 20.7749 10.0825 20.7749 7.51562C20.7749 3.37152 17.4034 0 13.2593 0C9.11517 0 5.74365 3.37152 5.74365 7.51562C5.74365 10.0825 7.03751 12.3526 9.00696 13.709C7.16817 14.3435 5.48284 15.3917 4.06691 16.8076C1.61153 19.263 0.259277 22.5276 0.259277 26H2.29053C2.29053 19.9518 7.21108 15.0312 13.2593 15.0312C19.3075 15.0312 24.228 19.9518 24.228 26H26.2593C26.2593 22.5276 24.907 19.263 22.4517 16.8076ZM13.2593 13C10.2352 13 7.7749 10.5398 7.7749 7.51562C7.7749 4.4915 10.2352 2.03125 13.2593 2.03125C16.2834 2.03125 18.7437 4.4915 18.7437 7.51562C18.7437 10.5398 16.2834 13 13.2593 13Z" fill="white"/>
</g>
<defs>
<clipPath id="clip0_8_101">
<rect width="26" height="26" fill="white" transform="translate(0.259277)"/>
</clipPath>
</defs>
</svg>
