<svg width="27" height="26" viewBox="0 0 27 26" fill="none" xmlns="http://www.w3.org/2000/svg">
<path d="M18.1075 16.6079C19.5567 14.8517 20.472 12.5991 20.472 10.1175C20.472 4.54332 15.9336 0 10.3656 0C4.7976 0 0.259277 4.54332 0.259277 10.1175C0.259277 15.6916 4.7976 20.235 10.3656 20.235C12.8064 20.235 15.0946 19.3568 16.8489 17.8678L24.7052 25.7327C24.8959 25.9236 25.1247 26 25.3535 26C25.5823 26 25.8112 25.9236 26.0019 25.7327C26.3451 25.3891 26.3451 24.7783 26.0019 24.4347L18.1075 16.6079ZM10.3275 18.4023C5.75103 18.4023 2.05172 14.699 2.05172 10.1175C2.05172 5.53598 5.75103 1.8326 10.3275 1.8326C14.9039 1.8326 18.6032 5.53598 18.6032 10.1175C18.6032 14.699 14.9039 18.4023 10.3275 18.4023Z" fill="white"/>
</svg>
