<svg width="27" height="27" viewBox="0 0 27 27" fill="none" xmlns="http://www.w3.org/2000/svg">
<path d="M18.5851 26.2554H7.67259C6.43852 26.3013 5.23621 25.8583 4.32691 25.0227C3.4176 24.1871 2.87476 23.0265 2.81634 21.7929V15.9429C2.81634 15.6943 2.91511 15.4558 3.09092 15.28C3.26674 15.1042 3.5052 15.0054 3.75384 15.0054C4.00248 15.0054 4.24093 15.1042 4.41675 15.28C4.59256 15.4558 4.69134 15.6943 4.69134 15.9429V21.7929C4.74896 22.5293 5.09393 23.2134 5.65175 23.6976C6.20956 24.1817 6.93544 24.427 7.67259 24.3804H18.5851C19.3222 24.427 20.0481 24.1817 20.6059 23.6976C21.1637 23.2134 21.5087 22.5293 21.5663 21.7929V15.9429C21.5663 15.6943 21.6651 15.4558 21.8409 15.28C22.0167 15.1042 22.2552 15.0054 22.5038 15.0054C22.7525 15.0054 22.9909 15.1042 23.1667 15.28C23.3426 15.4558 23.4413 15.6943 23.4413 15.9429V21.7929C23.3829 23.0265 22.8401 24.1871 21.9308 25.0227C21.0215 25.8583 19.8192 26.3013 18.5851 26.2554ZM25.982 13.7961C26.0698 13.7089 26.1396 13.6052 26.1872 13.491C26.2348 13.3767 26.2593 13.2542 26.2593 13.1304C26.2593 13.0067 26.2348 12.8841 26.1872 12.7699C26.1396 12.6557 26.0698 12.552 25.982 12.4648L13.7945 0.277311C13.7073 0.189441 13.6036 0.119696 13.4894 0.0721002C13.3751 0.0245046 13.2526 0 13.1288 0C13.0051 0 12.8825 0.0245046 12.7683 0.0721002C12.6541 0.119696 12.5504 0.189441 12.4632 0.277311L0.275711 12.4648C0.0991761 12.6413 0 12.8808 0 13.1304C0 13.3801 0.0991761 13.6195 0.275711 13.7961C0.452246 13.9726 0.691678 14.0718 0.941336 14.0718C1.19099 14.0718 1.43043 13.9726 1.60696 13.7961L13.1288 2.26481L24.6507 13.7961C24.7379 13.8839 24.8416 13.9537 24.9558 14.0013C25.07 14.0489 25.1926 14.0734 25.3163 14.0734C25.4401 14.0734 25.5626 14.0489 25.6769 14.0013C25.7911 13.9537 25.8948 13.8839 25.982 13.7961Z" fill="white"/>
</svg>
