<svg width="26" height="26" viewBox="0 0 26 26" fill="none" xmlns="http://www.w3.org/2000/svg">
<path d="M25.5 10.3606V13.7599H14.8V9.05986V8.55986H14.3H11.7H11.2V9.05986V13.7599H0.5V10.3599C0.5 9.2021 1.44224 8.25986 2.6 8.25986H6.6482L6.87847 7.31604C6.32429 7.02851 5.81354 6.6835 5.39495 6.2662C4.75878 5.62772 4.40157 4.76314 4.40157 3.86181C4.40157 2.96045 4.75881 2.09584 5.39501 1.45736C6.67397 0.181091 8.92483 0.181064 10.2038 1.45617C11.1741 2.42714 11.7493 3.85779 12.0821 5.14942C12.3888 6.33968 12.4756 7.35538 12.496 7.65933C12.4916 7.68453 12.487 7.71967 12.487 7.76116V8.26116H12.987H13.013H13.513V7.76116C13.513 7.72272 13.5091 7.68973 13.505 7.66479C13.5249 7.36603 13.6111 6.34646 13.919 5.15084C14.2517 3.8594 14.8265 2.4292 15.7961 1.45891C17.0761 0.181226 19.3245 0.182173 20.6037 1.45739C21.24 2.09609 21.5972 2.9609 21.5972 3.86246C21.5972 4.76285 21.2409 5.62659 20.6062 6.26505C20.1693 6.68773 19.6707 7.04153 19.1274 7.31433L19.3518 8.26116H23.3995C23.9562 8.26172 24.49 8.48305 24.8838 8.87663C25.2776 9.2702 25.4992 9.80388 25.5 10.3606ZM6.5256 5.13336L6.52735 5.13512C6.97473 5.58249 7.58013 5.91625 8.19536 6.16617C8.81601 6.4183 9.47943 6.59813 10.0716 6.7218L10.8191 6.87792L10.6633 6.13036C10.5396 5.5369 10.3604 4.87514 10.1081 4.25575C9.85779 3.64133 9.52333 3.03789 9.07395 2.58851L9.07301 2.58757C8.73374 2.25009 8.28071 2.06246 7.8 2.06246L7.7975 2.06247C7.44251 2.06424 7.09595 2.1708 6.80128 2.36876C6.50661 2.56673 6.27695 2.8473 6.14111 3.17527C6.00527 3.50325 5.96929 3.86403 6.03769 4.21238C6.1061 4.56072 6.27583 4.88111 6.5256 5.13336ZM15.3367 6.13296L15.1812 6.87926L15.9277 6.72456C16.5213 6.60153 17.1835 6.42261 17.8034 6.17025C18.4181 5.92 19.0218 5.58525 19.4713 5.13519C20.1759 4.43197 20.1725 3.29017 19.4718 2.58766L19.4714 2.58721C19.1337 2.24952 18.6785 2.06246 18.2 2.06246C17.7207 2.06246 17.2658 2.25005 16.926 2.58981L17.2796 2.94336L16.926 2.58981C16.4766 3.03926 16.1421 3.6431 15.8919 4.25779C15.6396 4.87748 15.4604 5.53954 15.3367 6.13296ZM1.8 23.3612V16.0612H11.2V25.4612H3.9C2.74224 25.4612 1.8 24.5189 1.8 23.3612ZM22.1 25.4612H14.8V16.0612H24.2V23.3612C24.2 24.5189 23.2578 25.4612 22.1 25.4612Z" stroke="white"/>
</svg>
