<svg width="22" height="22" viewBox="0 0 22 22" fill="none" xmlns="http://www.w3.org/2000/svg">
<g clip-path="url(#clip0_118_2504)">
<path d="M5.65547 2.76731C5.19488 2.30669 5.19488 1.56135 5.65547 1.10072C5.90718 0.849014 5.90718 0.440982 5.65547 0.189271C5.4038 -0.0624395 4.99572 -0.0624395 4.74401 0.189271C3.78194 1.15134 3.78194 2.71669 4.74401 3.67876C5.2046 4.13935 5.2046 4.88473 4.74401 5.34535C4.4923 5.59706 4.4923 6.00509 4.74401 6.2568C4.99568 6.50851 5.4038 6.50851 5.65547 6.2568C6.61754 5.29473 6.61754 3.72938 5.65547 2.76731Z" fill="white"/>
<path d="M9.52252 2.76731C9.06194 2.30669 9.06194 1.56135 9.52252 1.10072C9.77423 0.849014 9.77423 0.440982 9.52252 0.189271C9.27085 -0.0624395 8.86277 -0.0624395 8.61106 0.189271C7.64899 1.15134 7.64899 2.71669 8.61106 3.67876C9.07165 4.13935 9.07165 4.88473 8.61106 5.34535C8.35935 5.59706 8.35935 6.00509 8.61106 6.2568C8.86273 6.50851 9.27089 6.50851 9.52252 6.2568C10.4846 5.29473 10.4846 3.72938 9.52252 2.76731Z" fill="white"/>
<path d="M13.3896 2.76731C12.929 2.30669 12.929 1.56135 13.3896 1.10072C13.6413 0.849014 13.6413 0.440982 13.3896 0.189271C13.1379 -0.0624395 12.7298 -0.0624395 12.4781 0.189271C11.5161 1.15134 11.5161 2.71669 12.4781 3.67876C12.9387 4.13935 12.9387 4.88473 12.4781 5.34535C12.2264 5.59706 12.2264 6.00509 12.4781 6.2568C12.7298 6.50851 13.138 6.50851 13.3896 6.2568C14.3517 5.29473 14.3517 3.72938 13.3896 2.76731Z" fill="white"/>
<path d="M16.1995 16.8006C19.398 16.8006 22.0002 14.1984 22.0002 11C22.0002 9.93382 21.1328 9.06641 20.0666 9.06641H18.1206C18.1288 8.85212 18.1331 8.63723 18.1331 8.42188C18.1331 8.06592 17.8445 7.77734 17.4885 7.77734H0.64537C0.289417 7.77734 0.00083915 8.06592 0.00083915 8.42188C0.00083915 11.945 1.13148 15.6408 3.4878 18.1325H0.64537C0.167429 18.1325 -0.145298 18.6368 0.0688587 19.0652C0.509976 19.9473 1.18695 20.6879 2.02677 21.2067C2.86634 21.7254 3.8315 21.9995 4.81785 21.9995H13.3161C15.3261 21.9995 17.1652 20.8648 18.0651 19.0652C18.2788 18.6377 17.9676 18.1325 17.4886 18.1325H14.6461C15.028 17.7286 15.3857 17.2834 15.7155 16.8005H16.1995V16.8006ZM18.0211 10.3554H20.0666C20.422 10.3554 20.7112 10.6446 20.7112 11C20.7112 13.3906 18.842 15.3525 16.4885 15.5021C17.2942 13.9429 17.8083 12.1826 18.0211 10.3554ZM16.2699 19.413C15.5218 20.226 14.4623 20.7106 13.316 20.7106H4.81785C3.67166 20.7106 2.61218 20.226 1.86405 19.413C2.43197 19.413 15.9626 19.413 16.2699 19.413ZM12.7258 18.1326H5.40807C3.03452 16.3369 1.46474 12.8434 1.30357 9.05786L16.8303 9.06645C16.6879 12.4113 15.3545 16.1439 12.7258 18.1326Z" fill="white"/>
</g>
<defs>
<clipPath id="clip0_118_2504">
<rect width="22" height="22" fill="white"/>
</clipPath>
</defs>
</svg>
