<svg width="21" height="21" viewBox="0 0 21 21" fill="none" xmlns="http://www.w3.org/2000/svg">
<path d="M17.6395 12.3369H17.6244C17.9445 11.9173 18.2256 11.354 18.2145 10.6765C18.1995 9.7609 17.6521 8.86507 16.5877 8.01391C16.7207 7.61428 16.749 7.22027 16.6709 6.83424C16.3614 5.30496 14.7019 4.69419 13.179 4.35466C13.2331 4.17486 13.2626 3.98446 13.2626 3.78725C13.2626 3.04096 12.846 2.39018 12.2332 2.055C12.8429 0.817184 13.6557 0.680344 13.9827 0.680344C14.3993 0.680344 14.6612 0.769515 14.8128 0.849931C14.9307 0.912478 15.0735 0.902408 15.1797 0.821674C15.3775 0.671318 15.3521 0.367386 15.1327 0.250684C14.8887 0.120784 14.5179 0 13.9827 0C13.3305 0 12.7189 0.300077 12.2138 0.867756C12.0438 1.05889 11.798 1.38105 11.5834 1.83625C11.4875 1.82187 11.3894 1.81425 11.2896 1.81425C10.5497 1.81425 9.90395 2.22386 9.56632 2.82805C9.44272 2.69149 9.3062 2.51283 9.21 2.31063C9.16954 2.22559 9.09561 2.16114 9.00585 2.13261C8.91609 2.10412 8.81848 2.11406 8.73639 2.16014C7.71941 2.73063 6.97688 3.49066 6.52935 4.41915C6.14664 5.2132 6.07588 5.94476 6.07457 6.37015C6.04581 6.38131 6.01733 6.39247 5.9907 6.4039C5.1102 6.78126 4.60248 7.49966 4.52229 8.4814C4.49027 8.87382 4.53458 9.23191 4.58189 9.47765C3.88118 9.72874 3.39387 10.2087 3.21816 10.8378C3.07946 11.3344 3.15104 11.8731 3.39682 12.337H3.12541C3.02195 12.337 2.92412 12.384 2.85953 12.4649C2.79499 12.5458 2.77077 12.6516 2.79367 12.7525L4.47952 20.1703C4.59055 20.6588 5.01795 21 5.51891 21H15.2459C15.7468 21 16.1742 20.6588 16.2853 20.1703L17.9711 12.7525C17.994 12.6516 17.9698 12.5458 17.9053 12.4649C17.8408 12.384 17.743 12.3369 17.6395 12.3369ZM11.2896 2.4946C12.0024 2.4946 12.5822 3.07448 12.5822 3.78725C12.5822 4.50002 12.0024 5.0799 11.2896 5.0799C10.5768 5.0799 9.99693 4.50002 9.99693 3.78725C9.99693 3.07448 10.5769 2.4946 11.2896 2.4946ZM5.519 20.3196C5.3378 20.3196 5.18322 20.1962 5.14304 20.0195L3.55162 13.0173H4.6526L5.86874 20.1521C5.87863 20.2101 5.89255 20.2659 5.90947 20.3196H5.519ZM6.73486 20.3196C6.67309 20.3196 6.57081 20.2216 6.53947 20.0378L5.34279 13.0173H6.45025L7.25891 20.1333C7.2663 20.1982 7.2771 20.2604 7.29102 20.3196H6.73486ZM8.01223 20.3196C7.98856 20.2811 7.95091 20.1971 7.93494 20.0565L7.135 13.0173H8.24681L8.65008 20.1142C8.6542 20.1871 8.66055 20.2556 8.66899 20.3196H8.01223ZM10.0423 20.3196H9.35841C9.34675 20.2613 9.33527 20.1809 9.32929 20.0756L8.92825 13.0173H10.0186C10.019 13.0173 10.0194 13.0173 10.0198 13.0173C10.0204 13.0173 10.0209 13.0173 10.0215 13.0173H10.0423V20.3196ZM11.4356 20.0756C11.4296 20.1809 11.4182 20.2614 11.4065 20.3196H10.7226V13.0173H11.8367L11.4356 20.0756ZM12.7527 20.3196H12.0959C12.1044 20.2556 12.1107 20.1872 12.1148 20.1142L12.5181 13.0173H13.63L12.83 20.0565C12.8141 20.1971 12.7765 20.2811 12.7527 20.3196ZM14.0301 20.3196H13.4739C13.4879 20.2604 13.4987 20.1982 13.5061 20.1333L14.3147 13.0173H15.4221L14.2255 20.0378C14.1942 20.2216 14.0919 20.3196 14.0301 20.3196ZM15.6219 20.0195C15.5817 20.1962 15.4271 20.3196 15.2459 20.3196H14.8554C14.8723 20.2659 14.8862 20.2101 14.8961 20.1521L16.1123 13.0173H16.8333C16.8336 13.0173 16.8338 13.0173 16.8342 13.0173C16.8345 13.0173 16.8348 13.0173 16.8352 13.0173H17.2133L15.6219 20.0195ZM16.705 12.3369H11.4891C12.2539 11.9373 13.2446 11.3773 14.1782 10.7223C14.332 10.6144 14.3692 10.4023 14.2613 10.2485C14.1534 10.0947 13.9412 10.0575 13.7874 10.1654C12.167 11.3022 10.3117 12.1701 9.94627 12.3369H4.22435C3.88631 11.9719 3.74861 11.4681 3.87352 11.0208C4.01494 10.5144 4.47168 10.1598 5.15959 10.0221C5.80574 9.89293 7.51426 9.53321 9.42009 8.98521C9.60061 8.93328 9.70493 8.74483 9.653 8.56426C9.60106 8.38374 9.41279 8.27933 9.23204 8.33136C7.53327 8.81985 5.99361 9.15671 5.2411 9.31142C5.1371 8.75149 5.06838 7.53935 6.25876 7.02918C6.71817 6.83229 7.6492 6.66275 8.63488 6.48327L8.96417 6.42317C9.14895 6.38925 9.27128 6.212 9.23735 6.02721C9.20342 5.84239 9.02617 5.72011 8.84139 5.75403L8.51301 5.81399C7.87653 5.92988 7.26213 6.04182 6.76081 6.16442C6.80707 5.37172 7.14284 3.97176 8.78061 2.92625C8.90353 3.10985 9.03565 3.26107 9.14065 3.36934C9.21395 3.4449 9.27649 3.50409 9.33115 3.55162C9.32189 3.629 9.31659 3.70751 9.31659 3.78734C9.31659 4.87526 10.2017 5.76034 11.2896 5.76034C11.9289 5.76034 12.4979 5.45445 12.8587 4.98162C13.5296 5.12431 14.0848 5.28936 14.5331 5.48217C14.6181 5.61084 14.6065 5.70332 14.5829 5.77721C14.4984 6.04195 13.9715 6.76997 10.9104 7.80876C10.7325 7.86913 10.6372 8.0623 10.6976 8.24019C10.7457 8.38188 10.8779 8.47115 11.0197 8.47115C11.056 8.47115 11.0928 8.46529 11.1291 8.453C12.2262 8.08067 13.1163 7.70884 13.7746 7.34785C14.6076 6.89098 15.0841 6.44485 15.2311 5.98404C15.242 5.95006 15.2506 5.91614 15.2579 5.88216C15.6761 6.18592 15.9181 6.54405 16.0041 6.96931C16.1293 7.58751 15.8483 8.27008 15.169 8.99805C15.0408 9.13539 15.0482 9.35065 15.1856 9.47883C15.2512 9.54001 15.3345 9.57031 15.4176 9.57031C15.5086 9.57031 15.5994 9.53402 15.6664 9.46223C15.9205 9.18995 16.1283 8.9189 16.2902 8.6498C17.1048 9.3336 17.5234 10.0187 17.5343 10.6878C17.5464 11.4302 17.0562 12.0146 16.705 12.3369Z" fill="white"/>
</svg>
