<svg width="11" height="10" viewBox="0 0 11 10" fill="none" xmlns="http://www.w3.org/2000/svg">
<g clip-path="url(#clip0_118_2637)">
<path d="M7.26182 3.34317L7.15761 3.00019C7.02524 2.61058 6.6021 2.40207 6.21249 2.53444C5.99332 2.6089 5.8212 2.78102 5.74674 3.00019L5.64253 3.34317C5.55484 3.63242 5.53643 3.93825 5.5888 4.23592C5.63656 4.48654 5.79568 4.70186 6.02122 4.82108L5.90451 7.43003C5.88889 7.57565 5.93612 7.72103 6.03437 7.82966C6.24564 8.06076 6.60429 8.07683 6.83539 7.86556C6.84789 7.85413 6.85986 7.84216 6.87128 7.82966C6.96733 7.72411 7.01449 7.583 7.00114 7.44091L6.88378 4.82076C7.10902 4.70147 7.26787 4.4863 7.31555 4.23592C7.36792 3.93825 7.34951 3.63242 7.26182 3.34317ZM6.99578 4.17944C6.96064 4.35949 6.83232 4.50722 6.65897 4.56722C6.59317 4.59195 6.55078 4.65623 6.55395 4.72645L6.67731 7.46656C6.68299 7.5203 6.66526 7.57389 6.62862 7.61362C6.53088 7.71038 6.37347 7.71038 6.27573 7.61362C6.23726 7.57068 6.21979 7.5129 6.22801 7.45584L6.3504 4.72645C6.35357 4.65623 6.31118 4.59195 6.24538 4.56722C6.07202 4.50722 5.94371 4.35949 5.90857 4.17944C5.86515 3.93231 5.88045 3.67842 5.95321 3.43829L6.05741 3.09515C6.13805 2.87713 6.38015 2.76576 6.59818 2.84639C6.71345 2.88902 6.8043 2.9799 6.84693 3.09515L6.95114 3.43829C7.02382 3.67844 7.03912 3.93231 6.99578 4.17944Z" fill="#FF1E00"/>
<path d="M4.74783 2.49561C4.65819 2.49561 4.58551 2.56828 4.58551 2.65792V4.05159L4.14611 4.49099C4.11361 4.52337 4.09632 4.56803 4.09855 4.61387L4.24058 7.45445C4.24397 7.5157 4.22173 7.57562 4.17923 7.61985C4.09038 7.70949 3.94567 7.71014 3.85601 7.62127C3.85552 7.6208 3.85506 7.62032 3.85459 7.61985C3.81206 7.57562 3.78984 7.5157 3.79323 7.45445L3.93624 4.61387C3.93851 4.56805 3.92128 4.52341 3.88884 4.49099L3.44928 4.05159V2.65792C3.44928 2.56828 3.3766 2.49561 3.28696 2.49561C3.19732 2.49561 3.12464 2.56828 3.12464 2.65792V4.11879C3.12464 4.16185 3.14177 4.20312 3.1722 4.23355L3.60819 4.6697L3.46973 7.4387C3.455 7.74116 3.68825 7.99832 3.99071 8.01305C4.29317 8.02778 4.55033 7.79452 4.56506 7.49206C4.56593 7.47429 4.56593 7.4565 4.56506 7.43872L4.4266 4.66972L4.86259 4.23357C4.89302 4.20314 4.91015 4.16187 4.91015 4.11881V2.65794C4.91015 2.56828 4.83747 2.49561 4.74783 2.49561Z" fill="#FF1E00"/>
<path d="M3.77391 2.49561C3.68427 2.49561 3.6116 2.56828 3.6116 2.65792V3.95647C3.6116 4.04612 3.68427 4.11879 3.77391 4.11879C3.86355 4.11879 3.93623 4.04612 3.93623 3.95647V2.65792C3.93623 2.56828 3.86355 2.49561 3.77391 2.49561Z" fill="#FF1E00"/>
<path d="M4.26088 2.49561C4.17123 2.49561 4.09856 2.56828 4.09856 2.65792V3.95647C4.09856 4.04612 4.17123 4.11879 4.26088 4.11879C4.35052 4.11879 4.42319 4.04612 4.42319 3.95647V2.65792C4.42319 2.56828 4.35052 2.49561 4.26088 2.49561Z" fill="#FF1E00"/>
<path d="M5.23478 0.0610352C2.5454 0.0610352 0.365219 2.24122 0.365219 4.9306C0.365219 7.61998 2.5454 9.80017 5.23478 9.80017C7.92416 9.80017 10.1043 7.61998 10.1043 4.9306C10.1013 2.24248 7.92291 0.0640786 5.23478 0.0610352ZM5.23478 9.47553C2.72469 9.47553 0.689857 7.4407 0.689857 4.9306C0.689857 2.4205 2.72469 0.385673 5.23478 0.385673C7.74488 0.385673 9.77971 2.4205 9.77971 4.9306C9.77685 7.4395 7.74369 9.47267 5.23478 9.47553Z" fill="#FF1E00"/>
<path d="M5.76169 7.97762C5.75299 7.8884 5.67359 7.82313 5.58436 7.83183C5.58227 7.83204 5.58018 7.83228 5.57809 7.83256L5.57874 7.8324C5.35021 7.85894 5.11935 7.85894 4.89083 7.8324C4.80176 7.82195 4.7211 7.88568 4.71066 7.97476C4.70021 8.06383 4.76394 8.14448 4.85301 8.15493C5.10645 8.18453 5.36247 8.18453 5.61591 8.15493C5.70512 8.14625 5.77039 8.06685 5.76169 7.97762Z" fill="#FF1E00"/>
<path d="M7.71826 2.83877C7.66066 2.77009 7.55828 2.7611 7.4896 2.81873C7.48937 2.81891 7.48915 2.81911 7.48891 2.8193C7.42039 2.87708 7.41166 2.97946 7.46943 3.048C8.44811 4.2098 8.37324 5.92772 7.29721 6.99998C7.2337 7.06326 7.23352 7.16607 7.2968 7.22958C7.36009 7.29309 7.4629 7.29327 7.5264 7.22999C8.72223 6.03871 8.80562 4.1298 7.71826 2.83877Z" fill="#FF1E00"/>
<path d="M4.14752 2.20755C4.14736 2.20755 4.14721 2.20654 4.14705 2.20654C4.1468 2.20654 4.14655 2.20755 4.14627 2.20755H4.14752Z" fill="#FF1E00"/>
<path d="M6.00044 1.77476C5.36608 1.62273 4.70077 1.66359 4.08978 1.89212C4.00587 1.92367 3.96344 2.01729 3.99499 2.10119C4.01877 2.16443 4.07923 2.20629 4.14678 2.20635C4.1662 2.20625 4.18543 2.2027 4.20357 2.19582C4.75379 1.99006 5.35291 1.95331 5.92415 2.09031C6.01129 2.11137 6.09901 2.05783 6.12007 1.97068C6.14113 1.88354 6.08758 1.79582 6.00044 1.77476Z" fill="#FF1E00"/>
<path d="M3.16506 6.9921C2.61786 6.44583 2.31118 5.70385 2.31305 4.93065C2.31145 4.3129 2.50712 3.71078 2.87159 3.21202C2.92546 3.14035 2.91103 3.0386 2.83937 2.98473C2.7677 2.93086 2.66595 2.94529 2.61208 3.01695C2.61113 3.01823 2.61019 3.01951 2.60928 3.0208C1.67081 4.311 1.80891 6.09186 2.93505 7.22194C2.99852 7.28545 3.10147 7.28549 3.16498 7.22202C3.22849 7.15856 3.22853 7.05561 3.16506 6.9921Z" fill="#FF1E00"/>
</g>
<defs>
<clipPath id="clip0_118_2637">
<rect width="9.73913" height="9.73913" fill="white" transform="translate(0.365219 0.0610352)"/>
</clipPath>
</defs>
</svg>
