<svg width="21" height="21" viewBox="0 0 21 21" fill="none" xmlns="http://www.w3.org/2000/svg">
<g clip-path="url(#clip0_118_2540)">
<path d="M6.83103 11.8741C6.40086 11.4439 5.82894 11.207 5.22059 11.207C4.61221 11.207 4.04029 11.4439 3.61011 11.8741C2.72208 12.7621 2.72208 14.207 3.61011 15.095C4.04029 15.5252 4.61221 15.7621 5.22059 15.7621C5.82894 15.7621 6.40086 15.5252 6.83103 15.095C7.71902 14.207 7.71902 12.7621 6.83103 11.8741ZM6.39171 14.6557C6.07889 14.9685 5.66299 15.1408 5.22059 15.1408C4.77816 15.1408 4.36226 14.9686 4.04943 14.6557C3.40364 14.0099 3.40364 12.9592 4.04943 12.3134C4.36226 12.0006 4.77816 11.8283 5.22059 11.8283C5.66299 11.8283 6.07889 12.0005 6.39171 12.3134C6.70458 12.6262 6.87684 13.0421 6.87684 13.4845C6.87684 13.9269 6.70458 14.3429 6.39171 14.6557Z" fill="white"/>
<path d="M6.05637 13.3785C6.22791 13.3785 6.36698 13.2395 6.36698 13.0679C6.36698 12.8964 6.22791 12.7573 6.05637 12.7573C5.88482 12.7573 5.74576 12.8964 5.74576 13.0679C5.74576 13.2395 5.88482 13.3785 6.05637 13.3785Z" fill="white"/>
<path d="M4.99324 14.5802C5.16479 14.5802 5.30385 14.4411 5.30385 14.2696C5.30385 14.098 5.16479 13.959 4.99324 13.959C4.8217 13.959 4.68263 14.098 4.68263 14.2696C4.68263 14.4411 4.8217 14.5802 4.99324 14.5802Z" fill="white"/>
<path d="M4.5515 13.1647C4.72305 13.1647 4.86211 13.0256 4.86211 12.8541C4.86211 12.6825 4.72305 12.5435 4.5515 12.5435C4.37996 12.5435 4.24089 12.6825 4.24089 12.8541C4.24089 13.0256 4.37996 13.1647 4.5515 13.1647Z" fill="white"/>
<path d="M20.0968 14.7638C20.9329 12.8824 21.1955 10.8154 20.8556 8.77069C20.4955 6.60399 19.4815 4.63508 17.9233 3.07686C16.3668 1.52039 14.4002 0.506817 12.2363 0.145633C10.1896 -0.195986 8.11987 0.0661449 6.23614 0.903192L5.56037 0.227377C5.38786 0.0549886 5.12261 0.00663116 4.90031 0.10716C4.07429 0.480485 3.33511 0.997692 2.70326 1.64443C2.11112 2.25043 1.6337 2.95016 1.28412 3.72421C1.18413 3.94565 1.23281 4.21024 1.40512 4.38263L1.73665 4.71416C0.44359 6.66896 -0.159463 9.02416 0.0362636 11.3766C0.24167 13.8452 1.32083 16.1708 3.07503 17.925C3.76676 18.6167 4.54675 19.2065 5.39336 19.6781C5.60467 19.7958 5.82291 19.9075 6.04202 20.0102C6.206 20.0871 6.3742 20.1606 6.54192 20.2288C7.79671 20.7386 9.1478 20.9998 10.5041 20.9998C10.8804 20.9998 11.2572 20.9797 11.6323 20.9392C13.2946 20.7598 14.8978 20.1815 16.2859 19.2634L16.6225 19.6C16.7355 19.713 16.8858 19.773 17.039 19.773C17.1144 19.773 17.1906 19.7584 17.2634 19.7286C18.0624 19.4007 18.7798 18.9291 19.3958 18.3272C20.0496 17.6883 20.5577 16.9343 20.9061 16.086C20.9968 15.8652 20.9464 15.6135 20.7777 15.4448L20.0968 14.7638ZM12.134 0.758366C14.1696 1.0981 16.0195 2.05175 17.4839 3.51613C18.95 4.9822 19.904 6.83442 20.2427 8.87253C20.5493 10.717 20.3348 12.5805 19.6237 14.2908L17.9672 12.6342C18.5695 10.5212 18.2547 8.25779 17.0927 6.39518C17.0018 6.24962 16.8101 6.20524 16.6647 6.29605C16.5191 6.38686 16.4748 6.57848 16.5656 6.72401C17.5725 8.33797 17.8874 10.2794 17.4574 12.1244L8.87521 3.54222C11.2742 2.98248 13.7929 3.69094 15.551 5.44899C15.6153 5.51327 15.6791 5.57955 15.7408 5.64599C15.802 5.71195 15.8852 5.74533 15.9686 5.74533C16.0442 5.74533 16.12 5.71789 16.1798 5.6624C16.3056 5.54571 16.3129 5.34916 16.1962 5.22341C16.1293 5.15134 16.0601 5.07944 15.9904 5.00972C13.9892 3.00861 11.0817 2.25966 8.36654 3.0335L6.7093 1.37627C8.4217 0.664358 10.2875 0.450215 12.134 0.758366ZM11.5657 20.3215C9.94031 20.4971 8.28389 20.2659 6.77579 19.6532C6.618 19.5891 6.45984 19.52 6.30562 19.4477C6.09956 19.3512 5.89432 19.246 5.6956 19.1354C4.89924 18.6918 4.16535 18.1368 3.51431 17.4858C1.86388 15.8354 0.848537 13.6474 0.655312 11.3251C0.47468 9.15394 1.01707 6.98072 2.18561 5.16316L3.72443 6.70198C2.98758 8.01682 2.64584 9.54871 2.75363 11.0603C1.42653 12.4108 1.43313 14.5887 2.77459 15.9302C3.42793 16.5835 4.2966 16.9434 5.22056 16.9434C5.49483 16.9434 5.76401 16.9109 6.02434 16.8492C6.6308 17.2778 7.29242 17.6148 7.99551 17.8536C8.07877 18.2844 8.28688 18.6956 8.61981 19.0285C9.06384 19.4725 9.64709 19.6945 10.2302 19.6945C10.8135 19.6945 11.3967 19.4725 11.8407 19.0285C12.1291 18.7401 12.3232 18.3928 12.4243 18.0251C13.0806 17.8579 13.7091 17.6065 14.2981 17.2757L15.837 18.8146C14.5562 19.6379 13.0873 20.1573 11.5657 20.3215ZM3.3543 11.3472C3.87143 10.8944 4.52682 10.6464 5.22064 10.6464C5.97865 10.6464 6.69129 10.9416 7.22729 11.4776C8.33377 12.584 8.33377 14.3844 7.22729 15.4909C6.90154 15.8166 6.51029 16.0528 6.08344 16.1885C6.08188 16.1876 5.90023 16.2441 5.89711 16.241C5.67825 16.2943 5.4516 16.3221 5.2206 16.3221C4.46259 16.3221 3.74994 16.0269 3.21399 15.4909C2.11243 14.3893 2.10792 12.6004 3.19959 11.4927C3.20046 11.4856 3.34914 11.3565 3.3543 11.3472ZM9.05925 16.2469C9.38212 15.924 9.80627 15.7626 10.2304 15.7626C10.6545 15.7626 11.0787 15.924 11.4015 16.2469C11.7827 16.6281 11.9387 17.1504 11.8699 17.6472C11.8512 17.69 11.8421 17.7372 11.8445 17.7857C11.7778 18.0803 11.6305 18.3603 11.4015 18.5892C10.7558 19.235 9.705 19.235 9.05925 18.5892C8.41346 17.9434 8.41346 16.8926 9.05925 16.2469ZM18.9616 17.8829C18.408 18.4239 17.7639 18.8487 17.047 19.1458L9.87743 11.9763C9.75606 11.8549 9.55939 11.855 9.43811 11.9763C9.31683 12.0976 9.31683 12.2943 9.43811 12.4156L13.8404 16.8179C13.415 17.0432 12.9684 17.2245 12.5054 17.3594C12.491 16.7958 12.2699 16.2367 11.8408 15.8076C10.9528 14.9196 9.50792 14.9196 8.61985 15.8076C8.23557 16.1919 8.01795 16.6805 7.96627 17.1831C7.54311 17.0231 7.13738 16.8237 6.75286 16.5864C7.08677 16.4211 7.39545 16.2014 7.66661 15.9302C9.01528 14.5815 9.01528 12.387 7.66661 11.0383C7.01323 10.3849 6.14456 10.0251 5.2206 10.0251C4.54913 10.0251 3.90736 10.216 3.35574 10.5706C3.34581 9.38514 3.63149 8.20332 4.18233 7.1598L8.38503 11.3625C8.50636 11.4838 8.70303 11.4838 8.82435 11.3625C8.94564 11.2413 8.94564 11.0446 8.82435 10.9233L4.35279 6.45166C4.34081 6.43723 4.3274 6.42381 4.31263 6.41151L1.8599 3.95877C2.17859 3.2595 2.61176 2.627 3.14759 2.07858C3.7202 1.49259 4.38925 1.02283 5.13656 0.6822L19.4595 15.0051C19.4833 15.0427 19.5154 15.0754 19.5548 15.1004L20.3236 15.8692C20.0078 16.6309 19.5497 17.3083 18.9616 17.8829Z" fill="white"/>
<path d="M9.55336 7.16028C9.72491 7.16028 9.86397 7.02122 9.86397 6.84967C9.86397 6.67813 9.72491 6.53906 9.55336 6.53906C9.38181 6.53906 9.24275 6.67813 9.24275 6.84967C9.24275 7.02122 9.38181 7.16028 9.55336 7.16028Z" fill="white"/>
<path d="M7.95293 7.04261C8.12448 7.04261 8.26354 6.90354 8.26354 6.732C8.26354 6.56045 8.12448 6.42139 7.95293 6.42139C7.78138 6.42139 7.64232 6.56045 7.64232 6.732C7.64232 6.90354 7.78138 7.04261 7.95293 7.04261Z" fill="white"/>
<path d="M8.84256 9.32044C9.01411 9.32044 9.15317 9.18138 9.15317 9.00983C9.15317 8.83828 9.01411 8.69922 8.84256 8.69922C8.67101 8.69922 8.53195 8.83828 8.53195 9.00983C8.53195 9.18138 8.67101 9.32044 8.84256 9.32044Z" fill="white"/>
<path d="M10.299 8.69935C10.4706 8.69935 10.6096 8.56028 10.6096 8.38874C10.6096 8.21719 10.4706 8.07812 10.299 8.07812C10.1275 8.07812 9.98841 8.21719 9.98841 8.38874C9.98841 8.56028 10.1275 8.69935 10.299 8.69935Z" fill="white"/>
<path d="M10.6095 11.1222C10.7811 11.1222 10.9201 10.9831 10.9201 10.8116C10.9201 10.64 10.7811 10.501 10.6095 10.501C10.438 10.501 10.2989 10.64 10.2989 10.8116C10.2989 10.9831 10.438 11.1222 10.6095 11.1222Z" fill="white"/>
<path d="M12.5077 11.1427C12.6793 11.1427 12.8183 11.0036 12.8183 10.8321C12.8183 10.6605 12.6793 10.5215 12.5077 10.5215C12.3362 10.5215 12.1971 10.6605 12.1971 10.8321C12.1971 11.0036 12.3362 11.1427 12.5077 11.1427Z" fill="white"/>
<path d="M12.1972 12.9655C12.3688 12.9655 12.5078 12.8264 12.5078 12.6548C12.5078 12.4833 12.3688 12.3442 12.1972 12.3442C12.0257 12.3442 11.8866 12.4833 11.8866 12.6548C11.8866 12.8264 12.0257 12.9655 12.1972 12.9655Z" fill="white"/>
<path d="M14.1438 11.4537C14.3154 11.4537 14.4544 11.3147 14.4544 11.1431C14.4544 10.9716 14.3154 10.8325 14.1438 10.8325C13.9723 10.8325 13.8332 10.9716 13.8332 11.1431C13.8332 11.3147 13.9723 11.4537 14.1438 11.4537Z" fill="white"/>
<path d="M12.349 9.32044C12.5205 9.32044 12.6596 9.18138 12.6596 9.00983C12.6596 8.83828 12.5205 8.69922 12.349 8.69922C12.1774 8.69922 12.0384 8.83828 12.0384 9.00983C12.0384 9.18138 12.1774 9.32044 12.349 9.32044Z" fill="white"/>
</g>
<defs>
<clipPath id="clip0_118_2540">
<rect width="21" height="21" fill="white"/>
</clipPath>
</defs>
</svg>
