<svg width="142" height="174" viewBox="0 0 142 174" fill="none" xmlns="http://www.w3.org/2000/svg">
<g clip-path="url(#clip0_118_485)">
<path d="M109.594 20.5677C107.69 10.245 97.5145 2.34144 85.3088 2.34144C80.1467 2.30587 75.0851 3.76889 70.7377 6.55311C66.823 2.49203 61.0237 0 54.6318 0C42.975 0 33.4795 8.37477 33.4795 18.6635C33.4793 19.2411 33.5085 19.8183 33.5669 20.3929C23.3671 21.7093 15.4891 29.4914 15.4891 38.8523C15.4891 49.1411 24.9797 57.5158 36.6463 57.5158H38.7931V82.6402C38.7944 84.7617 39.6376 86.796 41.1375 88.2961C42.6374 89.7962 44.6714 90.6396 46.7926 90.6409H95.2754C97.3966 90.6396 99.4306 89.7962 100.931 88.2961C102.43 86.796 103.274 84.7617 103.275 82.6402V57.5256H105.422C117.079 57.5256 126.579 49.1508 126.579 38.8621C126.545 29.8363 119.255 22.2922 109.594 20.5677Z" fill="white"/>
<path d="M90.6904 116.533H84.828V145.582L74.1911 144.343V116.61H68.3141C68.2704 117.582 68.1878 118.495 68.1878 119.418C68.1878 127.599 68.1392 135.774 68.2169 143.95C68.2169 145.47 67.7652 146.233 66.3615 146.865C63.4473 148.137 60.674 149.643 57.4198 151.237V116.591H51.6496V151.509C48.0068 151.839 44.7283 151.382 41.6927 149.813C41.1342 149.522 40.8622 148.22 40.8524 147.384C40.7942 138.155 40.8136 128.925 40.8136 119.719V116.644H34.9852V146.316C29.9678 144.747 25.2711 143.887 20.5209 145.198C18.0415 145.955 15.6087 146.857 13.2354 147.899C10.6757 148.939 8.21808 150.27 5.60015 151.135C2.40908 152.189 0.0145689 150.391 0.00485489 147.049C-0.0404773 132.434 -0.0404773 117.82 0.00485489 103.208C0.00485489 99.9775 1.57367 98.7437 5.34758 98.7437C32.5696 98.7437 59.7932 98.7437 87.0185 98.7437C103.63 98.7437 120.241 98.7437 136.852 98.7437C140.951 98.7437 141.956 99.7444 141.961 103.757C141.961 116.542 141.972 129.335 141.995 142.133C141.995 146.126 139.863 147.584 136.045 146.219C128.76 143.605 121.761 144.188 114.976 147.987C112.605 149.313 110.026 150.27 107.097 151.601V116.625H101.352V151.509C97.9983 151.825 94.6293 151.097 91.7055 149.425C91.0838 149.07 90.7341 147.749 90.7341 146.874C90.6612 137.824 90.6855 128.779 90.6855 119.734L90.6904 116.533Z" fill="white"/>
<path d="M80.0049 91.151C78.6158 89.2614 77.7416 87.6194 76.4593 86.4293C74.1919 84.3525 72.8284 81.4699 72.6611 78.3994C72.1754 72.0843 73.5791 66.1239 77.217 60.8775C81.326 54.951 87.3828 54.9802 91.4141 60.9844C95.3288 66.8137 96.9365 73.3279 95.4794 80.2697C95.0471 82.3391 93.5075 84.1947 92.3952 86.099C91.5306 87.5563 90.5398 88.965 89.6024 90.3981L90.2435 91.151H80.0049ZM81.496 81.6881C81.2678 75.0087 81.1463 69.058 84.7357 63.6173C79.6455 64.7394 77.3141 75.6548 81.496 81.6881Z" fill="#2D6CFF"/>
<path d="M62.7722 91.2724H51.2173C51.9945 88.5618 50.0371 87.1822 48.7888 85.2731C47.3081 82.9739 46.4126 80.3471 46.1806 77.6221C45.8017 71.9142 46.0543 66.1626 46.0737 60.4256C46.0737 58.6574 45.996 56.6512 48.5023 56.6317C51.0085 56.6123 51.0473 58.5748 51.0571 60.3528C51.0571 65.2105 51.0571 70.0683 51.0571 75.0961H54.4035V64.239C54.4035 62.6748 54.4035 61.1106 54.4035 59.5464C54.4035 57.9045 54.8892 56.5491 56.8661 56.5831C58.8429 56.6172 59.2606 58.0405 59.2946 59.6435C59.3383 63.554 59.2946 67.4645 59.2946 71.375V75.1009H63.1122C63.1122 70.1557 63.1122 65.3854 63.1122 60.6394C63.1122 59.8621 62.8839 58.8566 63.2725 58.3562C63.8699 57.5838 64.8996 56.7483 65.769 56.724C66.4198 56.724 67.6729 57.9093 67.7118 58.5894C67.8381 65.876 67.9498 73.1918 67.6389 80.4785C67.5661 82.271 66.2595 84.2724 64.9724 85.6763C63.4862 87.3085 61.7717 88.5812 62.7722 91.2724Z" fill="#2D6CFF"/>
<path d="M28.3942 151.951V167.981C28.3942 169.581 27.7586 171.116 26.6273 172.247C25.496 173.379 23.9616 174.015 22.3617 174.015C20.7618 174.015 19.2275 173.379 18.0962 172.247C16.9649 171.116 16.3293 169.581 16.3293 167.981V154.059C17.9832 153.356 19.6781 152.754 21.4049 152.257C23.6807 151.652 26.0491 151.476 28.3893 151.737C28.3942 151.805 28.3942 151.878 28.3942 151.951Z" fill="white"/>
<path d="M131.013 151.951V167.981C131.013 169.581 130.378 171.116 129.247 172.247C128.115 173.379 126.581 174.015 124.981 174.015C123.381 174.015 121.847 173.379 120.715 172.247C119.584 171.116 118.949 169.581 118.949 167.981V154.059C120.6 153.355 122.294 152.753 124.019 152.257C126.297 151.652 128.667 151.476 131.009 151.737C131.013 151.805 131.013 151.878 131.013 151.951Z" fill="white"/>
</g>
<defs>
<clipPath id="clip0_118_485">
<rect width="142" height="174" fill="white"/>
</clipPath>
</defs>
</svg>
