<svg width="22" height="21" viewBox="0 0 22 21" fill="none" xmlns="http://www.w3.org/2000/svg">
<g clip-path="url(#clip0_118_2519)">
<path d="M7.46222 7.45865C8.17094 7.45865 8.74548 6.91023 8.74548 6.23372C8.74548 5.55721 8.17094 5.00879 7.46222 5.00879C6.75349 5.00879 6.17896 5.55721 6.17896 6.23372C6.17896 6.91023 6.75349 7.45865 7.46222 7.45865ZM7.46222 5.70874C7.76597 5.70874 8.0122 5.94377 8.0122 6.23372C8.0122 6.52367 7.76597 6.7587 7.46222 6.7587C7.15846 6.7587 6.91224 6.52367 6.91224 6.23372C6.91224 5.94377 7.15846 5.70874 7.46222 5.70874Z" fill="white"/>
<path d="M4.16237 10.2583C3.45365 10.2583 2.87911 10.8067 2.87911 11.4832C2.87911 12.1597 3.45365 12.7082 4.16237 12.7082C4.8711 12.7082 5.44564 12.1597 5.44564 11.4832C5.44564 10.8067 4.8711 10.2583 4.16237 10.2583ZM4.16237 12.0082C3.85862 12.0082 3.61239 11.7732 3.61239 11.4832C3.61239 11.1933 3.85862 10.9583 4.16237 10.9583C4.46613 10.9583 4.71236 11.1933 4.71236 11.4832C4.71236 11.7732 4.46609 12.0082 4.16237 12.0082Z" fill="white"/>
<path d="M5.44564 8.50854C5.64813 8.50854 5.81228 8.35186 5.81228 8.15857C5.81228 7.96528 5.64813 7.80859 5.44564 7.80859C5.24315 7.80859 5.07899 7.96528 5.07899 8.15857C5.07899 8.35186 5.24315 8.50854 5.44564 8.50854Z" fill="white"/>
<path d="M9.11212 9.90845C9.31461 9.90845 9.47877 9.75176 9.47877 9.55847C9.47877 9.36519 9.31461 9.2085 9.11212 9.2085C8.90963 9.2085 8.74548 9.36519 8.74548 9.55847C8.74548 9.75176 8.90963 9.90845 9.11212 9.90845Z" fill="white"/>
<path d="M6.5456 12.0085C6.74809 12.0085 6.91224 11.8519 6.91224 11.6586C6.91224 11.4653 6.74809 11.3086 6.5456 11.3086C6.34311 11.3086 6.17896 11.4653 6.17896 11.6586C6.17896 11.8519 6.34311 12.0085 6.5456 12.0085Z" fill="white"/>
<path d="M8.01219 8.85864C8.21468 8.85864 8.37884 8.70195 8.37884 8.50867C8.37884 8.31538 8.21468 8.15869 8.01219 8.15869C7.8097 8.15869 7.64555 8.31538 7.64555 8.50867C7.64555 8.70195 7.8097 8.85864 8.01219 8.85864Z" fill="white"/>
<path d="M20.5186 14.8748C20.1804 14.3629 19.8727 13.8331 19.5972 13.2879C19.4543 13.0185 19.3116 12.749 19.1613 12.483C18.4016 11.1803 17.5309 9.93954 16.5581 8.77317C15.9861 8.06447 15.3848 7.29938 14.8689 6.50703C14.4606 5.87682 13.6081 5.66016 12.9257 6.01321C12.4677 5.35174 11.9522 4.664 11.3139 3.87165C10.773 3.20039 10.1523 2.41676 9.62727 1.6083C9.359 1.19101 8.88148 0.938184 8.36856 0.941936H8.35351C7.85511 0.951904 7.39594 1.20223 7.13366 1.60691C6.60127 2.42202 5.97796 3.20879 5.44157 3.87165C4.47075 5.04017 3.60017 6.2815 2.83836 7.58358C2.69171 7.84501 2.55164 8.10856 2.41194 8.37385C2.13559 8.9242 1.82584 9.45872 1.48432 9.97466C1.18187 10.4015 0.833084 10.7967 0.443759 11.1538C0.101299 11.4723 -0.0573356 11.93 0.0187251 12.3807C0.0947484 12.8314 0.395922 13.2184 0.825897 13.4182C2.6408 14.2659 4.59135 14.818 6.59697 15.0519C6.32581 15.4106 6.02213 15.7459 5.68952 16.0539C5.34735 16.3748 5.18928 16.8341 5.2653 17.2862C5.33957 17.7354 5.64048 18.121 6.07012 18.3176C8.41943 19.4304 11.0007 20.0252 13.6231 20.0581C15.0202 20.0528 16.4108 19.8755 17.7604 19.5307C18.9374 19.2334 20.0813 18.8272 21.1757 18.318C21.6058 18.1216 21.9071 17.7358 21.9813 17.2863C22.0575 16.8342 21.8992 16.3749 21.5567 16.0543C21.1679 15.6973 20.8199 15.3019 20.5186 14.8748ZM9.00287 1.97721C9.54735 2.81333 10.1813 3.61372 10.7324 4.29795C11.3923 5.1176 11.9192 5.82212 12.3823 6.49863L12.3768 6.50599C12.0875 6.95012 11.7707 7.38409 11.4484 7.80582C11.0701 6.71755 10.5012 5.69839 9.76584 4.79177C9.05408 3.91242 8.67958 2.82677 8.70477 1.71578C8.82769 1.77473 8.93093 1.86527 9.00287 1.97721ZM0.744109 12.273C0.704095 12.0447 0.78446 11.8122 0.958966 11.6515C1.38434 11.2599 1.76528 10.8267 2.09557 10.359C2.45259 9.82028 2.77664 9.26228 3.06609 8.68781C3.20287 8.42884 3.33961 8.16948 3.48297 7.91469C4.22587 6.64591 5.07459 5.43631 6.02093 4.29759C6.56871 3.62212 7.20264 2.81787 7.75409 1.97614C7.81019 1.8925 7.88397 1.82097 7.97078 1.76616C7.95782 3.01756 8.38791 4.23646 9.19134 5.22539C9.97688 6.20036 10.5592 7.31017 10.9065 8.49458C10.8332 8.58662 10.7599 8.68006 10.6865 8.77038C9.71381 9.93747 8.84315 11.1788 8.08333 12.4819C7.93338 12.7469 7.79002 13.016 7.64812 13.2869C7.45231 13.6561 7.24479 14.0285 7.02481 14.3929C4.98195 14.1959 2.99217 13.653 1.14889 12.7896C0.933325 12.6913 0.782027 12.4982 0.744109 12.273ZM13.6234 19.3581C11.1122 19.3254 8.64084 18.7548 6.39162 17.6883C6.17657 17.5908 6.02569 17.3983 5.98829 17.1738C5.94862 16.9458 6.02894 16.7138 6.20315 16.5533C6.62897 16.1619 7.00998 15.7284 7.33976 15.2601C7.69401 14.7256 8.01595 14.1722 8.30403 13.6026C8.44335 13.3391 8.58304 13.0776 8.73007 12.8162C9.47133 11.5463 10.3204 10.3366 11.2687 9.19911C11.8525 8.47604 12.4662 7.69416 13.0001 6.87591C13.0557 6.79208 13.1293 6.72052 13.216 6.66592C13.2026 7.91808 13.6328 9.13783 14.4369 10.1273C15.7552 11.7784 16.4967 13.7831 16.5565 15.8583C16.5565 16.5698 16.9599 17.387 17.7555 18.2871C17.8401 18.3795 17.8679 18.5074 17.8288 18.6242C17.7925 18.7377 17.6967 18.8247 17.5762 18.8538C16.2869 19.1835 14.9583 19.353 13.6234 19.3581ZM21.2574 17.1738C21.22 17.3983 21.0692 17.5908 20.8541 17.6883C20.1162 18.0314 19.3549 18.3265 18.5754 18.5717C18.5899 18.304 18.4968 18.0411 18.315 17.8367C17.6437 17.0769 17.2884 16.393 17.2884 15.8589C17.2246 13.626 16.4275 11.4686 15.0097 9.6915C14.2985 8.81333 13.924 7.72907 13.9486 6.61936C14.0715 6.67693 14.1749 6.76632 14.2471 6.8773C14.7805 7.69555 15.3943 8.47743 15.978 9.2005C16.9267 10.3374 17.776 11.5467 18.5174 12.8162C18.6641 13.0762 18.8045 13.3411 18.9442 13.604C19.2321 14.173 19.5538 14.7258 19.9078 15.2597C20.2374 15.7287 20.6185 16.1628 21.0444 16.5547C21.2175 16.7153 21.297 16.9466 21.2574 17.1738Z" fill="white"/>
<path d="M13.99 11.1336C13.99 10.4571 13.4155 9.90869 12.7068 9.90869C11.9981 9.90869 11.4235 10.4571 11.4235 11.1336C11.4235 11.8101 11.9981 12.3586 12.7068 12.3586C13.4155 12.3586 13.99 11.8101 13.99 11.1336ZM12.7068 11.6586C12.403 11.6586 12.1568 11.4236 12.1568 11.1336C12.1568 10.8437 12.403 10.6086 12.7068 10.6086C13.0105 10.6086 13.2568 10.8437 13.2568 11.1336C13.2568 11.4236 13.0105 11.6586 12.7068 11.6586Z" fill="white"/>
<path d="M9.40694 15.1582C8.69821 15.1582 8.12367 15.7066 8.12367 16.3831C8.12367 17.0596 8.69821 17.6081 9.40694 17.6081C10.1157 17.6081 10.6902 17.0596 10.6902 16.3831C10.6902 15.7067 10.1157 15.1582 9.40694 15.1582ZM9.40694 16.9082C9.10318 16.9082 8.85695 16.6731 8.85695 16.3832C8.85695 16.0932 9.10318 15.8582 9.40694 15.8582C9.71069 15.8582 9.95692 16.0932 9.95692 16.3832C9.95692 16.5224 9.89897 16.6559 9.79585 16.7544C9.69272 16.8528 9.55281 16.9082 9.40694 16.9082Z" fill="white"/>
<path d="M14.1734 15.5083C13.4646 15.5083 12.8901 16.0567 12.8901 16.7332C12.8901 17.4097 13.4646 17.9582 14.1734 17.9582C14.8821 17.9582 15.4566 17.4097 15.4566 16.7332C15.4566 16.0567 14.8821 15.5083 14.1734 15.5083ZM14.1734 17.2582C13.9509 17.2582 13.7504 17.1303 13.6653 16.9341C13.5802 16.738 13.6272 16.5122 13.7845 16.362C13.9418 16.2119 14.1784 16.167 14.3839 16.2482C14.5894 16.3295 14.7234 16.5209 14.7234 16.7332C14.7234 17.0232 14.4771 17.2582 14.1734 17.2582Z" fill="white"/>
<path d="M10.6902 13.4084C10.8927 13.4084 11.0568 13.2518 11.0568 13.0585C11.0568 12.8652 10.8927 12.7085 10.6902 12.7085C10.4877 12.7085 10.3236 12.8652 10.3236 13.0585C10.3236 13.2518 10.4877 13.4084 10.6902 13.4084Z" fill="white"/>
<path d="M14.3567 14.8084C14.5592 14.8084 14.7233 14.6517 14.7233 14.4584C14.7233 14.2651 14.5592 14.1084 14.3567 14.1084C14.1542 14.1084 13.99 14.2651 13.99 14.4584C13.99 14.6517 14.1542 14.8084 14.3567 14.8084Z" fill="white"/>
<path d="M11.7902 16.908C11.9926 16.908 12.1568 16.7513 12.1568 16.558C12.1568 16.3647 11.9926 16.208 11.7902 16.208C11.5877 16.208 11.4235 16.3647 11.4235 16.558C11.4235 16.7513 11.5877 16.908 11.7902 16.908Z" fill="white"/>
<path d="M13.2568 13.7585C13.4592 13.7585 13.6234 13.6019 13.6234 13.4086C13.6234 13.2153 13.4592 13.0586 13.2568 13.0586C13.0543 13.0586 12.8901 13.2153 12.8901 13.4086C12.8901 13.6019 13.0543 13.7585 13.2568 13.7585Z" fill="white"/>
</g>
<defs>
<clipPath id="clip0_118_2519">
<rect width="22" height="21" fill="white"/>
</clipPath>
</defs>
</svg>
