<svg width="21" height="21" viewBox="0 0 21 21" fill="none" xmlns="http://www.w3.org/2000/svg">
<path d="M20 9.68468C20.0007 9.54709 19.9237 9.41625 19.8033 9.35086L5.22075 1.36727C4.79306 1.13308 4.16146 0.849831 3.61625 1.09343C3.05749 1.34308 2.82719 2.01768 2.66161 2.70937L1.01043 9.59401C1.01002 9.59573 1.00987 9.59741 1.00946 9.59912C1.00787 9.60618 1.00664 9.61331 1.00546 9.62051C1.00449 9.62634 1.00349 9.63216 1.00282 9.63798C1.00215 9.64366 1.00178 9.64937 1.00137 9.65512C1.00082 9.66255 1.00037 9.66997 1.00026 9.67737C1.00022 9.67897 1 9.68061 1 9.68229V12.3893C1 13.155 1.30868 13.8386 1.87897 14.358C1.48665 14.6611 1.23783 15.1374 1.23783 15.6568C1.23783 15.982 1.33298 16.2851 1.49612 16.5401H1.37421C1.16755 16.5401 1 16.7086 1 16.9166V18.6107C1 19.3768 1.71406 20 2.59181 20H18.4082C19.2859 20 20 19.3768 20 18.6107V16.9166C20 16.7086 19.8324 16.5401 19.6257 16.5401H19.504C19.6671 16.2851 19.7622 15.982 19.7622 15.6568C19.7622 15.1213 19.5049 14.6388 19.0989 14.3386C19.66 13.8281 19.9777 13.1595 19.9998 12.4004C19.9999 12.3984 19.9997 12.3965 19.9997 12.3946C19.9998 12.3928 20 12.3911 20 12.3893V9.68468ZM18.1802 14.086C18.1742 14.0892 18.1684 14.0928 18.1626 14.0963C18.008 14.1872 17.8579 14.257 17.7285 14.3089C16.7237 14.7119 15.499 14.6321 14.9982 14.1312C14.8566 13.9895 14.6293 13.9847 14.4818 14.1202C13.7732 14.7716 12.7453 14.9893 11.8147 14.7145L13.0833 12.7657H14.2492C14.4558 12.7657 14.6234 12.5972 14.6234 12.3893C14.6234 12.1813 14.4558 12.0128 14.2492 12.0128H12.8773C12.8766 12.0128 12.876 12.0128 12.8753 12.0128H4.29609C4.29546 12.0128 4.29487 12.0128 4.29424 12.0128H1.74846V10.0587H19.2515V12.0128H17.5841C17.3775 12.0128 17.2099 12.1813 17.2099 12.3893C17.2099 12.5972 17.3775 12.7657 17.5841 12.7657H19.2034C19.0566 13.4178 18.6043 13.8325 18.1802 14.086ZM9.62685 16.7008C9.62333 16.7059 9.62006 16.7111 9.61676 16.7163L9.30133 17.2009C9.29981 17.2032 9.29836 17.2055 9.29691 17.2078C9.1615 17.4262 8.87075 17.575 8.57335 17.5783C8.40324 17.5802 8.08759 17.5335 7.8711 17.2008L6.10562 14.4897C6.10343 14.4865 6.1015 14.4831 6.09923 14.48L4.98295 12.7658H12.1886L10.9299 14.6993C10.9286 14.7014 10.9271 14.7034 10.9258 14.7056L9.62685 16.7008ZM3.38925 2.88578C3.54563 2.23243 3.71926 1.87128 3.9201 1.78154C4.09986 1.70129 4.41703 1.78438 4.8629 2.02858L18.1553 9.30584H1.84947L3.38925 2.88578ZM1.78379 12.7657H4.08817L5.21663 14.4985C4.42245 14.6784 3.41333 14.508 2.69575 14.0417C2.331 13.8047 1.90718 13.4011 1.78379 12.7657ZM1.98629 15.6568C1.98629 15.2874 2.21978 14.9587 2.5564 14.831C3.15932 15.1524 3.87353 15.3205 4.55638 15.3205C4.93834 15.3205 5.31033 15.2678 5.64747 15.1602L6.54611 16.5401H2.86337C2.37976 16.5401 1.98629 16.1439 1.98629 15.6568ZM19.2515 18.6107C19.2515 18.9556 18.8653 19.2471 18.4082 19.2471H2.59181C2.13466 19.2471 1.74842 18.9557 1.74842 18.6107V17.293H7.03636L7.24491 17.6132C7.54231 18.0703 8.02183 18.3312 8.563 18.3312C8.56912 18.3312 8.57536 18.3312 8.58148 18.3311C9.13085 18.3251 9.65951 18.0423 9.92951 17.6101L10.136 17.293H19.2515L19.2515 18.6107ZM19.0137 15.6568C19.0137 16.1439 18.6207 16.5401 18.1377 16.5401H10.6262L11.3903 15.3664C11.7881 15.5114 12.2042 15.5827 12.618 15.5827C13.3774 15.5826 14.1279 15.3433 14.7374 14.8837C15.0893 15.1205 15.5549 15.2693 16.0838 15.3099C16.7171 15.3584 17.3997 15.2514 18.0057 15.0083C18.1479 14.9513 18.283 14.8879 18.4114 14.8192C18.7666 14.9372 19.0137 15.2714 19.0137 15.6568Z" fill="white"/>
<path d="M3.19709 6.26674C3.4255 6.26674 3.61069 6.08155 3.61069 5.8531C3.61069 5.62464 3.4255 5.43945 3.19709 5.43945H3.19475C2.96633 5.43945 2.7823 5.62464 2.7823 5.8531C2.7823 6.08155 2.96863 6.26674 3.19709 6.26674Z" fill="white"/>
<path d="M4.27415 7.57422H4.27182C4.0434 7.57422 3.85936 7.7594 3.85936 7.98786C3.85936 8.21632 4.0457 8.4015 4.27415 8.4015C4.50257 8.4015 4.68776 8.21632 4.68776 7.98786C4.6878 7.75944 4.50261 7.57422 4.27415 7.57422Z" fill="white"/>
<path d="M4.25205 3.70424C4.48047 3.70424 4.66565 3.51905 4.66565 3.2906C4.66565 3.06214 4.48047 2.87695 4.25205 2.87695H4.2509C4.02249 2.87695 3.83783 3.06214 3.83783 3.2906C3.83783 3.51901 4.02363 3.70424 4.25205 3.70424Z" fill="white"/>
<path d="M6.64281 7.98786C6.64281 8.21632 6.82918 8.4015 7.05764 8.4015C7.2861 8.4015 7.47124 8.21632 7.47124 7.98786C7.47124 7.7594 7.28606 7.57422 7.05764 7.57422H7.05526C6.82684 7.57422 6.64281 7.75944 6.64281 7.98786Z" fill="white"/>
<path d="M8.23938 6.35023C8.4678 6.35023 8.65299 6.16505 8.65299 5.93659C8.65299 5.70813 8.4678 5.52295 8.23938 5.52295H8.23705C8.00863 5.52295 7.82459 5.70813 7.82459 5.93659C7.82459 6.16501 8.01097 6.35023 8.23938 6.35023Z" fill="white"/>
<path d="M6.40159 4.44447C6.63001 4.44447 6.8152 4.25929 6.8152 4.03083C6.8152 3.80237 6.63001 3.61719 6.40159 3.61719H6.39922C6.1708 3.61719 5.98676 3.80237 5.98676 4.03083C5.9868 4.25929 6.17318 4.44447 6.40159 4.44447Z" fill="white"/>
<path d="M13.6318 8.19301C13.8602 8.19301 14.0454 8.00782 14.0454 7.77936C14.0454 7.55091 13.8602 7.36572 13.6318 7.36572H13.6307C13.4023 7.36572 13.2176 7.55091 13.2176 7.77936C13.2176 8.00778 13.4034 8.19301 13.6318 8.19301Z" fill="white"/>
<path d="M10.7204 8.11049C10.9488 8.11049 11.134 7.9253 11.134 7.69685C11.134 7.46839 10.9488 7.2832 10.7204 7.2832H10.7193C10.4909 7.2832 10.3062 7.46839 10.3062 7.69685C10.3062 7.9253 10.492 8.11049 10.7204 8.11049Z" fill="white"/>
<path d="M16.4874 12.1621H16.485C16.2566 12.1621 16.0726 12.3473 16.0726 12.5758C16.0726 12.8042 16.2589 12.9894 16.4874 12.9894C16.7158 12.9894 16.901 12.8042 16.901 12.5758C16.901 12.3473 16.7158 12.1621 16.4874 12.1621Z" fill="white"/>
</svg>
