<svg width="342" height="330" viewBox="0 0 342 330" fill="none" xmlns="http://www.w3.org/2000/svg">
<g clip-path="url(#clip0_118_499)">
<path d="M177.857 324.143C257.652 324.143 322.339 321.594 322.339 318.45C322.339 315.306 257.652 312.758 177.857 312.758C98.061 312.758 33.3739 315.306 33.3739 318.45C33.3739 321.594 98.061 324.143 177.857 324.143Z" fill="#DEE6E7"/>
<path d="M149.026 294.855C212.8 307.56 268.726 293.123 299.457 267.548C312.096 256.988 324.983 240.818 329.691 222.008C346.791 153.698 296.4 97.185 257.326 118.388C193.47 153.12 183.97 128.453 131.926 75.735C92.6044 35.8875 -32.2174 91.6575 32.7957 208.89C59.2304 256.575 103.426 285.78 149.026 294.855Z" fill="#DEE6E7"/>
<path d="M120.113 98.5875V306.653C120.113 313.17 125.4 318.45 131.926 318.45H235.683C238.987 318.45 241.961 317.13 244.109 314.985C246.257 312.84 247.578 309.87 247.578 306.653V98.5875C247.578 92.07 242.291 86.79 235.765 86.79H131.926C130.026 86.79 128.209 87.285 126.557 88.11C122.757 90.0075 120.113 93.9675 120.113 98.5875Z" fill="#031D5B"/>
<path d="M124.491 98.5875V306.653C124.491 313.17 129.778 318.45 136.304 318.45H240.061C243.365 318.45 246.339 317.13 248.487 314.985C250.635 312.84 251.957 309.87 251.957 306.653V98.5875C251.957 92.07 246.67 86.79 240.144 86.79H136.304C134.404 86.79 132.587 87.285 130.935 88.11C127.135 90.0075 124.491 93.9675 124.491 98.5875Z" fill="#1A1F3B"/>
<path d="M198.178 301.125C198.178 306.322 193.965 310.53 188.761 310.53C183.557 310.53 179.261 306.322 179.261 301.125C179.261 295.927 183.474 291.72 188.678 291.72C193.883 291.72 198.178 295.845 198.178 301.125Z" fill="#031D5B"/>
<path d="M122.261 137.94H118.378C118.13 137.94 117.883 137.693 117.883 137.445V119.625C117.883 119.378 118.13 119.13 118.378 119.13H122.261V137.94Z" fill="#3F5651"/>
<path d="M251.874 155.348H254.93C255.178 155.348 255.344 155.183 255.344 154.935V136.95C255.344 136.703 255.178 136.538 254.93 136.538H251.874V155.348Z" fill="#3F5651"/>
<path d="M251.874 180.015H254.93C255.178 180.015 255.344 179.85 255.344 179.603V161.535C255.344 161.288 255.178 161.123 254.93 161.123H251.874V180.015Z" fill="#3F5651"/>
<path d="M246.009 97.185V280.995C246.009 281.655 245.843 282.232 245.596 282.81C244.77 284.46 242.952 285.615 240.804 285.615H135.643C132.752 285.615 130.439 283.552 130.439 281.077V97.185C130.439 96.9375 130.439 96.69 130.522 96.4425C130.852 94.875 132.009 93.6375 133.578 92.9775C133.909 92.8125 134.239 92.73 134.652 92.73C134.983 92.6475 135.313 92.6475 135.643 92.6475H240.804C243.696 92.6475 246.009 94.71 246.009 97.185Z" fill="#DEE6E7"/>
<path d="M130.439 97.845V118.057H246.009V97.845C246.009 94.9575 243.696 92.6475 240.804 92.6475H135.643C135.313 92.6475 134.983 92.6475 134.652 92.73C134.322 92.8125 133.909 92.895 133.578 93.06C132.009 93.72 130.77 95.205 130.522 97.02C130.439 97.2675 130.439 97.5975 130.439 97.845Z" fill="#F7F9FF"/>
<path d="M156.461 113.932H237.252C237.5 113.932 237.748 113.685 237.748 113.437V111.787C237.748 111.54 237.5 111.292 237.252 111.292H156.461C156.213 111.292 155.965 111.54 155.965 111.787V113.437C155.965 113.685 156.213 113.932 156.461 113.932Z" fill="#DEE6E7"/>
<path d="M138.452 112.365C138.617 113.52 137.626 114.51 136.387 114.428C135.561 114.345 134.9 113.685 134.817 112.86C134.652 111.705 135.643 110.715 136.883 110.798C137.709 110.963 138.37 111.623 138.452 112.365Z" fill="#E79C4D"/>
<path d="M144.896 112.365C145.061 113.52 144.07 114.51 142.83 114.428C142.004 114.345 141.343 113.685 141.261 112.86C141.096 111.705 142.087 110.715 143.326 110.798C144.152 110.963 144.813 111.623 144.896 112.365Z" fill="#2D6CFF"/>
<path d="M151.339 112.365C151.504 113.52 150.513 114.51 149.274 114.428C148.448 114.345 147.787 113.685 147.704 112.86C147.539 111.705 148.53 110.715 149.77 110.798C150.596 110.963 151.257 111.623 151.339 112.365Z" fill="#DD6635"/>
<path d="M247.578 91.8225H128.787V107.993H247.578V91.8225Z" fill="#2D6CFF"/>
<path d="M239.565 100.155H198.839C198.013 100.155 197.352 99.4951 197.352 98.6701C197.352 97.8451 198.013 97.1851 198.839 97.1851H239.565C240.391 97.1851 241.052 97.8451 241.052 98.6701C241.052 99.4126 240.391 100.155 239.565 100.155Z" fill="#3F5651"/>
<path d="M323.165 114.098H130.604V282.398H323.165V114.098Z" fill="#EBEBEB"/>
<path d="M254.683 235.538L269.635 264.908L306.23 264.33L304.165 232.485L254.683 235.538Z" fill="#E0E0E0"/>
<path d="M206.357 136.455L200.987 182.82L212.057 185.79L233.783 183.398L229.817 132.743L206.357 136.455Z" fill="#E0E0E0"/>
<path d="M172.57 231.413H146.961V196.845L174.8 197.175L172.57 231.413Z" fill="#F5F5F5"/>
<path d="M278.226 232.485C278.226 231.495 282.77 197.175 282.77 197.175C282.77 197.175 300.448 191.73 300.53 192.555C300.613 193.298 304.083 231.578 304.083 231.578L278.226 232.485Z" fill="#F5F5F5"/>
<path d="M149.935 144.54C150.017 145.365 162.161 172.838 162.161 172.838L176.287 168.63V137.033L161.748 136.62L149.935 144.54Z" fill="#E0E0E0"/>
<path d="M236.261 201.795H216.683V212.108H236.261V201.795Z" fill="#E0E0E0"/>
<path d="M236.261 215.573L216.6 216.645L215.609 237.6L238.078 235.538L236.261 215.573Z" fill="#E0E0E0"/>
<path d="M315.152 176.798L312.426 134.393H323.083V175.973L315.152 176.798Z" fill="#E0E0E0"/>
<path d="M271.452 127.463L275.913 180.263L299.209 177.953L295.161 132.908L276.657 127.463H271.452Z" fill="#E0E0E0"/>
<path d="M164.391 136.868L130.687 136.29L130.77 133.815L162.574 134.393L166.209 114.098L168.439 114.593L164.391 136.868Z" fill="white"/>
<path d="M146.796 177.705L130.439 136.868L131.017 136.538L147.126 176.963L176.204 168.383L176.37 168.96L146.796 177.705Z" fill="white"/>
<path d="M174.883 196.515H130.77V197.753H174.883V196.515Z" fill="white"/>
<path d="M147.209 177.375H146.63V231.413H147.209V177.375Z" fill="white"/>
<path d="M172.817 231.083H130.77V231.743H172.817V231.083Z" fill="white"/>
<path d="M170.587 280.335L130.522 270.435L131.017 267.96L168.522 277.2L174.965 177.128L175.957 135.548L177.443 114.263L179.674 114.428L178.187 135.713L177.196 177.293L170.587 280.335Z" fill="white"/>
<path d="M176.948 138.435L163.317 136.868L163.565 134.393L175.626 135.713L177.609 131.01L195.535 135.878L276.161 125.565L304.248 133.733L323 133.155L323.083 135.63L304 136.29L275.996 128.123L195.37 138.353L178.848 133.898L176.948 138.435Z" fill="white"/>
<path d="M270.709 234.383L268.478 234.053L274.757 180.263L269.965 127.463V114.098H272.196V127.463L277.07 180.345L270.709 234.383Z" fill="white"/>
<path d="M171.661 241.808L171.496 239.333L303.339 230.34L321.265 189.503L323.248 190.575L304.743 232.733L304.083 232.815L171.661 241.808Z" fill="white"/>
<path d="M237.665 237.105L229.239 132.825L228.743 114.345H229.9L230.313 132.743L238.739 236.94L237.665 237.105Z" fill="white"/>
<path d="M219.987 281.738L210.239 237.188V186.863L199.252 183.81L204.044 136.043L203.548 114.098L205.778 114.015L206.274 136.125V136.208L201.648 181.913L212.47 184.883V236.858L222.135 281.078L219.987 281.738Z" fill="white"/>
<path d="M211.313 196.845H174.8V197.505H211.313V196.845Z" fill="white"/>
<path d="M200.409 183.15L176.039 177.54L176.122 176.963L200.491 182.573L200.409 183.15Z" fill="white"/>
<path d="M211.313 217.883L202.639 215.738V197.175H203.135V215.243L211.396 217.223L211.313 217.883Z" fill="white"/>
<path d="M197.765 281.655L192.891 264.165H170.587V261.69H194.543L199.83 280.913L197.765 281.655Z" fill="white"/>
<path d="M269.47 265.238L254.435 235.703L254.93 235.373L269.8 264.578L323 263.67V264.33L269.47 265.238Z" fill="white"/>
<path d="M295.656 264.908H295.078V281.738H295.656V264.908Z" fill="white"/>
<path d="M305.9 264.33L303.835 232.485L293.178 114.098L293.757 114.015L304.413 232.403L306.478 264.248L305.9 264.33Z" fill="white"/>
<path d="M211.396 186.203L211.313 185.543L323.083 175.643L323.165 176.303L211.396 186.203Z" fill="white"/>
<path d="M315.152 176.88L311.848 135.548L312.922 135.383L316.309 176.715L315.152 176.88Z" fill="white"/>
<path d="M297.97 163.763L297.804 163.185L314.244 158.648L314.326 159.225L297.97 163.763Z" fill="white"/>
<path d="M307.057 160.71L304.083 142.313L295.987 141.405V140.745L304.578 141.735L307.552 160.628L307.057 160.71Z" fill="white"/>
<path d="M254.435 181.335L250.552 130.763L251.709 130.598L255.591 181.253L254.435 181.335Z" fill="white"/>
<path d="M253.691 163.763L253.609 163.185L273.352 158.318L273.517 158.895L253.691 163.763Z" fill="white"/>
<path d="M268.148 282.645L266.991 282.48L269.057 264.825L270.13 264.99L268.148 282.645Z" fill="white"/>
<path d="M177.03 198.248L174.8 237.023L209.496 235.125V219.945L200.409 217.635V199.898L177.03 198.248Z" fill="#E0E0E0"/>
<path d="M148.861 207.653C148.861 202.208 143.987 197.918 138.37 198.99C134.817 199.65 132.009 202.538 131.43 206.085C131.017 208.313 131.513 210.375 132.504 212.108C132.835 212.685 133.248 213.098 133.661 213.675L138.783 220.44C139.444 221.265 140.683 221.265 141.344 220.44L146.383 213.758C146.383 213.758 147.291 212.603 147.704 212.025C148.448 210.788 148.861 209.303 148.861 207.653ZM140.022 211.53C137.874 211.53 136.139 209.798 136.139 207.653C136.139 205.508 137.874 203.775 140.022 203.775C142.17 203.775 143.904 205.508 143.904 207.653C143.904 209.798 142.17 211.53 140.022 211.53Z" fill="#FF1E00"/>
<path d="M304.991 143.303C304.991 139.59 301.604 136.62 297.804 137.363C295.409 137.858 293.426 139.755 293.013 142.23C292.765 143.715 293.096 145.2 293.757 146.355C294.004 146.768 294.252 147.015 294.583 147.428L298.135 152.048C298.548 152.625 299.457 152.625 299.87 152.048L303.339 147.51C303.339 147.51 304 146.768 304.248 146.355C304.743 145.448 304.991 144.458 304.991 143.303ZM298.961 145.943C297.474 145.943 296.317 144.788 296.317 143.303C296.317 141.818 297.474 140.663 298.961 140.663C300.448 140.663 301.604 141.818 301.604 143.303C301.604 144.788 300.448 145.943 298.961 145.943Z" fill="#FF1E00"/>
<path d="M176.204 146.19C176.204 139.59 170.257 134.393 163.4 135.713C159.104 136.538 155.635 140.003 154.891 144.293C154.396 147.015 154.974 149.49 156.213 151.635C156.626 152.295 157.122 152.79 157.7 153.533L163.896 161.783C164.639 162.773 166.209 162.773 166.952 161.783L173.065 153.698C173.065 153.698 174.222 152.295 174.635 151.635C175.626 149.985 176.204 148.17 176.204 146.19ZM165.465 150.81C162.822 150.81 160.757 148.665 160.757 146.108C160.757 143.468 162.904 141.405 165.465 141.405C168.109 141.405 170.174 143.55 170.174 146.108C170.174 148.748 168.109 150.81 165.465 150.81Z" fill="#FF1E00"/>
<path d="M212.965 221.43C201.978 221.43 193.139 212.603 193.139 201.63C193.139 190.658 201.978 181.83 212.965 181.83C223.87 181.83 232.791 190.658 232.791 201.63C232.709 212.603 223.87 221.43 212.965 221.43ZM209.743 160.463C185.787 162.03 166.622 182.078 166.043 206.085C165.796 215.16 168.191 223.658 172.487 230.918C174.552 234.465 176.7 237.93 178.683 241.478L203.135 285.533H222.052L234.856 262.515C238.491 255.998 242.291 249.645 246.091 243.293V173.91C236.839 164.918 223.87 159.555 209.743 160.463Z" fill="#B1BEC2"/>
<path d="M202.226 201.63C202.226 190.658 211.065 181.83 222.052 181.83C232.957 181.83 241.878 190.658 241.878 201.63C241.878 212.603 233.039 221.43 222.052 221.43C211.148 221.43 202.226 212.603 202.226 201.63ZM175.13 206.085C174.883 215.16 177.278 223.658 181.574 230.918C183.639 234.465 185.787 237.93 187.77 241.478L221.722 302.61L243.943 262.598C249.809 251.955 256.252 241.643 262.448 231.165C266.661 224.153 269.057 215.985 269.057 207.24C269.057 180.345 246.257 158.648 218.913 160.463C194.874 162.113 175.709 182.078 175.13 206.085Z" fill="#FF1E00"/>
<path d="M159.765 197.34H59.0652C57 197.34 55.2652 195.607 55.2652 193.545V166.567C55.2652 164.505 57 162.772 59.0652 162.772H159.765C161.83 162.772 163.565 164.505 163.565 166.567V193.545C163.648 195.607 161.913 197.34 159.765 197.34Z" fill="white"/>
<path d="M156.957 176.137H96.6522C96.3217 176.137 96.0739 175.89 96.0739 175.56V173.662C96.0739 173.332 96.3217 173.085 96.6522 173.085H156.957C157.287 173.085 157.535 173.332 157.535 173.662V175.56C157.535 175.89 157.287 176.137 156.957 176.137Z" fill="#DEE6E7"/>
<path d="M156.957 182.82H96.6522C96.3217 182.82 96.0739 182.572 96.0739 182.242V180.345C96.0739 180.015 96.3217 179.767 96.6522 179.767H156.957C157.287 179.767 157.535 180.015 157.535 180.345V182.242C157.535 182.572 157.287 182.82 156.957 182.82Z" fill="#DEE6E7"/>
<path d="M156.957 188.843H96.6522C96.3217 188.843 96.0739 188.595 96.0739 188.265V186.368C96.0739 186.038 96.3217 185.79 96.6522 185.79H156.957C157.287 185.79 157.535 186.038 157.535 186.368V188.265C157.535 188.595 157.287 188.843 156.957 188.843Z" fill="#DEE6E7"/>
<path d="M74.2652 191.977C67.3261 191.977 61.7913 186.368 61.7913 179.52C61.7913 172.59 67.4087 167.062 74.2652 167.062C81.2044 167.062 86.7391 172.673 86.7391 179.52C86.7391 186.368 81.2044 191.977 74.2652 191.977Z" fill="#2D6CFF"/>
<path d="M80.3783 176.137C80.3783 175.972 80.2957 175.807 80.2957 175.725C80.1304 175.23 79.8826 174.735 79.5522 174.322C79.3044 173.992 78.9739 173.745 78.6435 173.58C78.1478 173.332 77.6522 173.415 77.3217 173.827C76.7435 174.57 76.0826 175.312 75.5044 176.055C75.1739 176.467 75.1739 177.127 75.6696 177.54C76 177.787 76.3304 178.117 76.6609 178.365C76.7435 178.365 76.7435 178.447 76.8261 178.447C76 180.592 74.6783 182.242 72.6957 183.48C72.4478 183.315 72.2 183.067 71.9522 182.902C71.787 182.82 71.7044 182.655 71.5391 182.572C71.1261 182.242 70.7131 182.242 70.3 182.49C70.1348 182.572 70.0522 182.737 69.9696 182.82C69.3913 183.48 68.8957 184.14 68.3174 184.8C68.1522 185.047 68.0696 185.212 67.987 185.542C67.987 185.625 67.987 185.707 67.987 185.872C68.0696 186.037 68.1522 186.202 68.3174 186.367C68.6478 186.697 68.9783 186.945 69.3913 187.192C69.887 187.44 70.3826 187.522 70.9609 187.522C71.2913 187.522 71.7044 187.44 72.0348 187.357C72.9435 187.11 73.687 186.697 74.5131 186.202C75.2565 185.707 75.9174 185.13 76.5783 184.47C77.4044 183.562 78.1478 182.655 78.8913 181.665C79.387 180.84 79.8826 180.015 80.2131 179.107C80.3783 178.612 80.4609 178.2 80.4609 177.705C80.4609 177.54 80.4609 177.292 80.4609 177.127C80.4609 176.55 80.3783 176.385 80.3783 176.137Z" fill="white"/>
<path d="M247.496 65.175H119.7V106.178H247.496V65.175Z" fill="#FF1E00"/>
<path d="M252.865 117.645V125.813C252.865 129.195 254.27 132.248 256.417 134.393C258.648 136.62 261.704 137.94 265.009 137.94C271.287 137.94 276.409 133.238 277.07 127.133C277.152 126.72 277.152 126.225 277.152 125.813V117.893L247.413 88.1925C246.504 87.285 245.348 86.79 244.109 86.79H222.383L252.865 117.645Z" fill="#2D6CFF"/>
<path d="M252.948 117.645V125.73C252.948 129.113 254.352 132.165 256.5 134.31C258.73 136.538 261.787 137.858 265.091 137.858C271.37 137.858 276.491 133.155 277.152 127.05L277.235 117.728L252.948 117.645Z" fill="#0045E6"/>
<path d="M173.809 86.79L204.209 117.15V125.73C204.209 129.113 205.613 132.165 207.761 134.31C209.991 136.538 213.048 137.858 216.352 137.858C223.044 137.858 228.496 132.413 228.496 125.73V117.398L198.096 86.7075H173.809V86.79Z" fill="#2D6CFF"/>
<path d="M204.209 117.232V125.73C204.209 129.112 205.613 132.165 207.761 134.31C209.991 136.537 213.048 137.857 216.352 137.857C223.043 137.857 228.496 132.412 228.496 125.73V117.397L204.209 117.232Z" fill="#0045E6"/>
<path d="M154.809 116.82V125.73C154.809 129.113 156.213 132.165 158.361 134.31C160.591 136.538 163.648 137.858 166.952 137.858C173.644 137.858 179.839 132.413 179.839 125.73L179.757 117.15L179.591 116.985L149.357 86.7075H124.243L154.809 116.82Z" fill="#2D6CFF"/>
<path d="M154.726 125.73C154.726 129.113 156.13 132.165 158.278 134.31C160.509 136.538 163.565 137.858 166.87 137.858C173.561 137.858 179.757 132.413 179.757 125.73L179.674 117.15L179.509 116.985L154.561 116.82L154.726 125.73Z" fill="#0045E6"/>
<path d="M130.439 116.573V125.73C130.439 129.113 131.761 132.165 133.991 134.31C136.222 136.538 139.278 137.858 142.583 137.858C149.274 137.858 154.726 132.413 154.726 125.73V116.82L124.409 86.8726C123.996 86.9551 123.583 87.0376 123.252 87.2026C121.435 87.9451 120.113 89.5951 119.783 91.6576C119.7 91.9876 119.7 92.3176 119.7 92.6476V106.178L130.439 116.573Z" fill="white"/>
<path d="M130.439 125.73C130.439 129.113 131.843 132.165 133.991 134.31C136.222 136.538 139.278 137.858 142.583 137.858C149.274 137.858 154.726 132.413 154.726 125.73V116.82L130.357 116.655L130.439 125.73Z" fill="#B1BEC2"/>
<path d="M198.178 86.79L228.578 117.48V125.813C228.578 129.195 229.983 132.248 232.13 134.393C234.361 136.62 237.417 137.94 240.722 137.94C247.413 137.94 252.865 132.495 252.865 125.813V117.728V117.645L222.465 86.79H198.178V86.79Z" fill="white"/>
<path d="M228.578 117.397V125.73C228.578 129.112 229.983 132.165 232.13 134.31C234.361 136.537 237.417 137.857 240.722 137.857C247.413 137.857 252.865 132.412 252.865 125.73V117.645V117.562L228.578 117.397Z" fill="#B1BEC2"/>
<path d="M149.439 86.79L179.839 117.15V125.73C179.839 129.113 181.244 132.165 183.391 134.31C185.622 136.538 188.678 137.858 191.983 137.858C198.674 137.858 204.126 132.413 204.126 125.73V117.15L173.726 86.79H149.439Z" fill="white"/>
<path d="M179.757 116.985L179.922 117.15V125.73C179.922 129.113 181.326 132.165 183.474 134.31C185.704 136.538 188.761 137.858 192.065 137.858C198.757 137.858 204.209 132.413 204.209 125.73V117.233L179.757 116.985Z" fill="#B1BEC2"/>
<path d="M248.157 65.835H118.957C118.378 65.835 117.883 65.34 117.883 64.7625V64.1025C117.883 63.525 118.378 63.03 118.957 63.03H248.074C248.652 63.03 249.148 63.525 249.148 64.1025V64.7625C249.23 65.34 248.735 65.835 248.157 65.835Z" fill="#E07014"/>
<path d="M295.904 246.18C295.904 242.55 298.878 239.58 302.513 239.58C306.148 239.58 309.122 242.55 309.122 246.18C309.122 249.81 306.148 252.78 302.513 252.78C298.878 252.862 295.904 249.892 295.904 246.18ZM297.722 246.18C297.722 248.82 299.87 250.965 302.513 250.965C305.157 250.965 307.304 248.82 307.304 246.18C307.304 243.54 305.157 241.395 302.513 241.395C299.87 241.395 297.722 243.54 297.722 246.18Z" fill="#FF1E00"/>
<path d="M282.191 258.802C282.687 258.802 283.017 258.39 283.017 257.977V252.78C283.017 252.285 282.604 251.955 282.191 251.955C281.778 251.955 281.365 252.367 281.365 252.78V257.977C281.365 258.472 281.696 258.802 282.191 258.802Z" fill="#2D6CFF"/>
<path d="M283.843 260.535H289.048C289.543 260.535 289.874 260.122 289.874 259.71C289.874 259.297 289.461 258.885 289.048 258.885H283.843C283.348 258.885 283.017 259.297 283.017 259.71C283.017 260.122 283.43 260.535 283.843 260.535Z" fill="#2D6CFF"/>
<path d="M275.335 260.535H280.539C281.035 260.535 281.365 260.122 281.365 259.71C281.365 259.297 280.952 258.885 280.539 258.885H275.335C274.839 258.885 274.509 259.297 274.509 259.71C274.509 260.122 274.839 260.535 275.335 260.535Z" fill="#2D6CFF"/>
<path d="M282.191 267.052C282.687 267.052 283.017 266.64 283.017 266.227V261.03C283.017 260.535 282.604 260.205 282.191 260.205C281.778 260.205 281.365 260.617 281.365 261.03V266.227C281.365 266.64 281.696 267.052 282.191 267.052Z" fill="#2D6CFF"/>
<path d="M50.6391 138.187C50.6391 134.557 53.613 131.587 57.2478 131.587C60.8826 131.587 63.8565 134.557 63.8565 138.187C63.8565 141.817 60.8826 144.787 57.2478 144.787C53.613 144.87 50.6391 141.9 50.6391 138.187ZM52.4565 138.187C52.4565 140.827 54.6044 142.972 57.2478 142.972C59.8913 142.972 62.0391 140.827 62.0391 138.187C62.0391 135.547 59.8913 133.402 57.2478 133.402C54.6044 133.402 52.4565 135.547 52.4565 138.187Z" fill="#2D6CFF"/>
<path d="M36.9261 150.81C37.4217 150.81 37.7522 150.397 37.7522 149.985V144.787C37.7522 144.292 37.3391 143.962 36.9261 143.962C36.4304 143.962 36.1 144.375 36.1 144.787V149.985C36.1 150.48 36.4304 150.81 36.9261 150.81Z" fill="#FF1E00"/>
<path d="M38.5783 152.542H43.7826C44.2783 152.542 44.6087 152.13 44.6087 151.717C44.6087 151.305 44.1956 150.892 43.7826 150.892H38.5783C38.0826 150.892 37.7522 151.305 37.7522 151.717C37.7522 152.13 38.1652 152.542 38.5783 152.542Z" fill="#FF1E00"/>
<path d="M30.0696 152.542H35.2739C35.7696 152.542 36.1 152.13 36.1 151.717C36.1 151.305 35.687 150.892 35.2739 150.892H30.0696C29.5739 150.892 29.2435 151.305 29.2435 151.717C29.2435 152.13 29.5739 152.542 30.0696 152.542Z" fill="#FF1E00"/>
<path d="M36.9261 159.06C37.4217 159.06 37.7522 158.647 37.7522 158.235V153.037C37.7522 152.542 37.3391 152.212 36.9261 152.212C36.4304 152.212 36.1 152.625 36.1 153.037V158.235C36.1 158.647 36.4304 159.06 36.9261 159.06Z" fill="#FF1E00"/>
<path d="M145.061 71.1975H149.439C150.183 71.1975 150.761 71.28 151.174 71.5275C152.083 71.94 152.496 72.6825 152.496 73.755C152.496 74.3325 152.413 74.745 152.165 75.1575C151.917 75.4875 151.587 75.8175 151.174 75.9825C151.504 76.1475 151.835 76.3125 152 76.56C152.165 76.8075 152.248 77.22 152.33 77.715L152.413 78.9525C152.413 79.2825 152.496 79.6125 152.496 79.7775C152.578 80.1075 152.743 80.2725 152.909 80.355V80.6025H151.339C151.257 80.52 151.257 80.4375 151.257 80.2725C151.257 80.1075 151.174 79.86 151.174 79.53L151.091 77.9625C151.091 77.385 150.843 76.9725 150.43 76.725C150.183 76.6425 149.77 76.56 149.274 76.56H146.383V80.6025H145.143V71.1975H145.061ZM149.274 75.4875C149.852 75.4875 150.348 75.405 150.678 75.1575C151.009 74.91 151.174 74.4975 151.174 73.8375C151.174 73.1775 150.926 72.6825 150.43 72.435C150.183 72.27 149.852 72.27 149.357 72.27H146.217V75.4875H149.274Z" fill="white"/>
<path d="M154.478 71.1975H161.335V72.3525H155.717V75.24H160.922V76.3125H155.717V79.53H161.417V80.685H154.478V71.1975Z" fill="white"/>
<path d="M163.978 77.55C163.978 78.045 164.143 78.54 164.391 78.87C164.804 79.53 165.548 79.7775 166.622 79.7775C167.117 79.7775 167.53 79.695 167.943 79.6125C168.687 79.365 169.1 78.87 169.1 78.21C169.1 77.715 168.935 77.3025 168.604 77.1375C168.274 76.89 167.778 76.725 167.117 76.56L165.878 76.3125C165.052 76.1475 164.474 75.9 164.143 75.6525C163.565 75.24 163.235 74.6625 163.235 73.92C163.235 73.095 163.565 72.3525 164.143 71.8575C164.722 71.28 165.548 71.0325 166.622 71.0325C167.613 71.0325 168.439 71.28 169.1 71.775C169.761 72.27 170.091 73.0125 170.091 74.085H168.935C168.852 73.59 168.77 73.1775 168.522 72.93C168.109 72.435 167.448 72.1875 166.539 72.1875C165.796 72.1875 165.217 72.3525 164.887 72.6825C164.557 73.0125 164.391 73.3425 164.391 73.755C164.391 74.25 164.557 74.58 164.97 74.745C165.217 74.91 165.796 75.075 166.704 75.24L168.026 75.57C168.687 75.735 169.183 75.9 169.513 76.1475C170.091 76.56 170.422 77.22 170.422 78.045C170.422 79.1175 170.009 79.86 169.265 80.2725C168.522 80.685 167.613 80.9325 166.622 80.9325C165.465 80.9325 164.557 80.6025 163.896 80.025C163.235 79.4475 162.904 78.6225 162.904 77.6325H163.978V77.55Z" fill="white"/>
<path d="M178.683 71.1975V72.3525H175.543V80.6025H174.222V72.3525H171.083V71.1975H178.683Z" fill="white"/>
<path d="M181.574 71.1975H182.978L186.365 80.6025H185.043L184.052 77.7975H180.335L179.343 80.6025H178.022L181.574 71.1975ZM183.722 76.725L182.317 72.6L180.83 76.725H183.722Z" fill="white"/>
<path d="M189.009 71.1975V76.9725C189.009 77.6325 189.174 78.21 189.422 78.705C189.835 79.365 190.413 79.695 191.322 79.695C192.396 79.695 193.139 79.365 193.552 78.6225C193.8 78.21 193.883 77.715 193.883 76.9725V71.1975H195.204V76.4775C195.204 77.6325 195.039 78.54 194.709 79.1175C194.13 80.2725 193.057 80.85 191.487 80.85C189.917 80.85 188.843 80.2725 188.265 79.1175C187.935 78.4575 187.77 77.6325 187.77 76.4775V71.1975H189.009Z" fill="white"/>
<path d="M197.187 71.1975H201.565C202.309 71.1975 202.887 71.28 203.3 71.5275C204.209 71.94 204.622 72.6825 204.622 73.755C204.622 74.3325 204.539 74.745 204.291 75.1575C204.043 75.4875 203.713 75.8175 203.3 75.9825C203.63 76.1475 203.961 76.3125 204.126 76.56C204.291 76.8075 204.374 77.22 204.457 77.715L204.539 78.9525C204.539 79.2825 204.622 79.6125 204.622 79.7775C204.704 80.1075 204.87 80.2725 205.035 80.355V80.6025H203.465C203.383 80.52 203.383 80.4375 203.383 80.2725C203.383 80.1075 203.3 79.86 203.3 79.53L203.217 77.9625C203.217 77.385 202.97 76.9725 202.557 76.725C202.309 76.6425 201.896 76.56 201.4 76.56H198.509V80.6025H197.27V71.1975H197.187ZM201.4 75.4875C201.978 75.4875 202.474 75.405 202.804 75.1575C203.135 74.91 203.3 74.4975 203.3 73.8375C203.3 73.1775 203.052 72.6825 202.557 72.435C202.309 72.27 201.978 72.27 201.483 72.27H198.343V75.4875H201.4Z" fill="white"/>
<path d="M209.248 71.1975H210.652L214.039 80.6025H212.635L211.643 77.7975H207.926L206.935 80.6025H205.696L209.248 71.1975ZM211.313 76.725L209.909 72.6L208.422 76.725H211.313Z" fill="white"/>
<path d="M215.278 71.1975H216.765L221.474 78.7875V71.1975H222.713V80.6025H221.309L216.517 73.0125V80.6025H215.278V71.1975Z" fill="white"/>
<path d="M231.552 71.1975V72.3525H228.413V80.6025H227.091V72.3525H223.952V71.1975H231.552Z" fill="white"/>
<path d="M89.2174 262.185C89.2174 262.185 89.2174 278.85 89.3826 279.758C89.6304 280.665 90.0435 285.698 88.887 288.008C87.6478 290.318 84.7565 295.02 82.2783 295.68C79.7174 296.34 78.3131 295.68 78.3131 295.68C78.3131 295.68 76.7435 284.873 77.2391 281.738C77.7348 278.603 78.8913 271.838 78.8913 271.838L86.7391 263.01L89.2174 262.185Z" fill="#FFBE9D"/>
<path d="M69.5565 239.333L62.2043 237.105L48.2435 236.198L39.9 237.765L48.987 252.368L62.2043 251.378L69.5565 239.333Z" fill="#FFBE9D"/>
<path d="M40.3957 209.137C40.2305 216.15 43.2044 223.245 48.3261 227.947C49.4826 224.482 50.7218 221.1 51.8783 217.635" fill="#263238"/>
<path d="M67.2435 188.677C64.187 187.027 60.4696 186.78 57.0826 187.44C53.6957 188.1 50.4739 189.667 47.5 191.4C45.8478 192.39 44.1131 193.463 42.8739 194.948C40.6435 197.753 38.4957 202.29 38.2478 205.837C38.0826 208.725 39.1565 215.902 40.3957 218.542C41.5522 220.935 46.7565 222.75 49.3174 223.328L72.9435 195.855C72.2 192.885 70.0522 190.162 67.2435 188.677Z" fill="#263238"/>
<path d="M71.3739 192.39L65.6739 191.4C68.8131 198.742 69.6391 215.655 71.3739 223.41C73.4391 220.357 78.3131 211.117 78.0652 207.487C77.8174 203.775 78.0652 191.73 71.3739 192.39Z" fill="#263238"/>
<path d="M44.4435 204.6C44.7739 200.31 47.5826 196.763 51.713 195.69L64.7652 192.39C70.3826 191.813 74.1826 198.743 74.513 204.353C74.9261 210.623 75.1739 217.305 74.4304 222.008C73.0261 231.413 65.7565 232.65 65.7565 232.65C65.7565 232.65 65.7565 237.105 65.7565 239.91L54.1087 249.15L47.3348 238.59L44.4435 204.765C44.4435 204.6 44.4435 204.848 44.4435 204.6Z" fill="#FFBE9D"/>
<path d="M71.7044 211.53C71.7044 212.19 71.2087 212.685 70.5478 212.767C69.887 212.767 69.3087 212.355 69.3087 211.695C69.3087 211.035 69.8044 210.54 70.4652 210.457C71.1261 210.375 71.7044 210.87 71.7044 211.53Z" fill="#263238"/>
<path d="M73.1913 208.065C73.0261 208.23 72.1174 207.57 70.7957 207.57C69.4739 207.57 68.5652 208.23 68.4 208.065C68.3174 207.982 68.4826 207.735 68.8957 207.405C69.3087 207.075 69.9696 206.827 70.7957 206.827C71.6218 206.827 72.2826 207.157 72.6957 207.405C73.1087 207.735 73.2739 207.982 73.1913 208.065Z" fill="#263238"/>
<path d="M60.387 211.53C60.387 212.19 59.8913 212.685 59.2304 212.767C58.5696 212.767 57.9913 212.355 57.9913 211.695C57.9913 211.035 58.487 210.54 59.1478 210.457C59.8087 210.375 60.387 210.87 60.387 211.53Z" fill="#263238"/>
<path d="M60.8 208.065C60.6348 208.23 59.7261 207.57 58.4044 207.57C57.0826 207.57 56.1739 208.23 56.0087 208.065C55.9261 207.982 56.0913 207.735 56.5044 207.405C56.9174 207.075 57.5783 206.827 58.4044 206.827C59.2305 206.827 59.8913 207.157 60.3044 207.405C60.7174 207.735 60.8826 207.982 60.8 208.065Z" fill="#263238"/>
<path d="M64.8478 218.295C64.8478 218.213 65.6739 218.048 66.9957 217.883C67.3261 217.883 67.6565 217.8 67.7391 217.553C67.8217 217.305 67.6565 216.975 67.4913 216.563C67.1609 215.738 66.8304 214.913 66.5 214.005C65.0957 210.375 64.1044 207.405 64.2696 207.405C64.4348 207.323 65.6739 210.21 66.9957 213.84C67.3261 214.748 67.6565 215.573 67.9043 216.398C68.0696 216.81 68.2348 217.223 68.0696 217.718C67.987 217.965 67.7391 218.13 67.4913 218.213C67.2435 218.295 67.0783 218.295 66.913 218.295C65.6739 218.378 64.8478 218.378 64.8478 218.295Z" fill="#263238"/>
<path d="M53.2826 229.268C53.2826 229.268 56.3391 235.785 65.8391 234.878V232.65C65.7565 232.65 59.5609 233.063 53.2826 229.268Z" fill="#EB996E"/>
<path d="M60.387 203.363C60.2217 203.693 58.9826 203.528 57.413 203.775C55.8435 203.94 54.687 204.353 54.4391 204.105C54.3565 203.94 54.5217 203.61 55.1 203.28C55.5957 202.95 56.4217 202.62 57.3304 202.538C58.2391 202.455 59.0652 202.62 59.6435 202.785C60.1391 202.95 60.4696 203.198 60.387 203.363Z" fill="#263238"/>
<path d="M72.7783 204.105C72.5305 204.435 71.6218 204.105 70.5478 204.105C69.4739 204.022 68.5652 204.27 68.3174 204.022C68.2348 203.857 68.4 203.61 68.7305 203.28C69.1435 203.032 69.8044 202.785 70.5478 202.785C71.2913 202.785 71.9522 203.032 72.2826 203.362C72.6957 203.61 72.8609 203.94 72.7783 204.105Z" fill="#263238"/>
<path d="M72.0348 195.773C71.4565 194.37 69.887 193.463 68.4 193.463C66.8304 193.38 65.3435 193.958 64.0217 194.7C58.4044 197.918 55.5131 205.755 49.9783 209.138C48.5739 209.963 46.8391 209.22 45.6826 210.293C44.5261 211.365 43.7826 213.098 44.4435 214.583C43.7 213.593 42.9565 212.52 42.5435 211.365C42.1304 210.21 42.0478 208.808 42.7087 207.653C43.2044 206.828 44.0304 206.168 44.2783 205.26C44.4435 204.435 44.1957 203.61 44.1957 202.703C44.1957 201.878 44.6087 201.053 45.0217 200.31C47.1696 196.433 50.2261 192.968 54.0261 190.823C56.587 189.42 59.3957 188.595 62.287 188.678C65.1783 188.76 68.0696 189.833 70.1348 191.813C71.3739 192.968 72.6957 194.205 72.0348 195.773Z" fill="#263238"/>
<path d="M45.7652 211.448C45.6826 211.2 40.7261 209.385 40.6435 214.665C40.5609 219.78 45.6826 218.708 45.7652 218.625C45.7652 218.46 45.7652 211.448 45.7652 211.448Z" fill="#FFBE9D"/>
<path d="M44.1957 216.645C44.1957 216.645 44.1131 216.728 43.9479 216.81C43.7826 216.893 43.5348 216.893 43.287 216.81C42.7913 216.645 42.2957 215.738 42.2957 214.83C42.2957 214.335 42.3783 213.923 42.5435 213.593C42.7087 213.263 42.9565 212.933 43.2044 212.933C43.4522 212.85 43.7 213.015 43.7 213.18C43.7826 213.345 43.7 213.428 43.7826 213.428C43.7826 213.428 43.8652 213.345 43.8652 213.098C43.8652 213.015 43.7826 212.85 43.7 212.768C43.6174 212.685 43.3696 212.603 43.2044 212.603C42.7913 212.603 42.4609 213.015 42.2957 213.345C42.1305 213.758 41.9652 214.253 41.9652 214.748C41.9652 215.738 42.5435 216.728 43.2044 216.975C43.5348 217.058 43.8652 216.975 44.0305 216.81C44.1957 216.81 44.1957 216.645 44.1957 216.645Z" fill="#EB996E"/>
<path d="M43.7 208.89C43.7 208.89 43.7826 208.807 44.0304 208.725C44.1957 208.642 44.5261 208.477 44.8565 208.147C45.6 207.652 46.5913 206.827 47.5826 205.672C48.6565 204.517 49.7304 203.032 50.9696 201.3C52.2087 199.65 53.4478 197.752 55.1826 196.102C56.0087 195.277 56.9174 194.535 57.9087 193.957C58.9 193.38 59.8913 192.967 60.8 192.637C62.7826 191.977 64.6 191.895 66.1696 191.977C67.7391 192.06 68.9783 192.39 69.8044 192.72C70.2174 192.885 70.5478 192.967 70.7131 193.05C70.9609 193.132 71.0435 193.215 71.0435 193.132C71.0435 193.132 70.9609 193.05 70.7131 192.967C70.4652 192.885 70.2174 192.72 69.8044 192.555C68.9783 192.225 67.7391 191.895 66.1696 191.73C64.6 191.565 62.7 191.73 60.7174 192.39C59.7261 192.72 58.7348 193.132 57.7435 193.71C56.7522 194.287 55.8435 195.03 55.0174 195.855C53.2826 197.587 51.9609 199.402 50.8044 201.135C49.6478 202.867 48.4913 204.352 47.5 205.507C46.5087 206.662 45.5174 207.487 44.8565 208.065C44.5261 208.312 44.1957 208.477 44.0304 208.642C43.7826 208.807 43.7 208.807 43.7 208.89Z" fill="#455A64"/>
<path d="M43.6174 217.553C43.1217 217.47 42.6261 217.8 42.4609 218.295C42.3783 218.79 42.6261 219.368 43.1217 219.533C43.6174 219.698 44.1957 219.45 44.3609 218.955C44.5261 218.46 44.2783 217.883 43.8652 217.718" fill="white"/>
<path d="M43.8652 217.635C43.8652 217.635 44.1957 217.8 44.3609 218.295C44.4435 218.542 44.3609 218.872 44.1957 219.12C43.9478 219.367 43.6174 219.532 43.287 219.367C42.9565 219.285 42.7087 218.872 42.7087 218.625C42.6261 218.295 42.7913 218.047 43.0391 217.882C43.4522 217.552 43.7826 217.635 43.7826 217.552C43.7826 217.552 43.7 217.47 43.5348 217.47C43.3696 217.47 43.1217 217.552 42.8739 217.717C42.6261 217.882 42.3783 218.212 42.4609 218.625C42.4609 219.037 42.7913 219.45 43.2044 219.615C43.7 219.78 44.113 219.532 44.3609 219.285C44.6087 218.955 44.6913 218.542 44.5261 218.295C44.4435 218.047 44.2783 217.8 44.113 217.717C43.9478 217.635 43.8652 217.635 43.8652 217.635Z" fill="#263238"/>
<path d="M45.0217 210.292C44.9391 211.695 44.8565 213.18 45.5174 214.417C46.1783 215.655 47.7478 216.48 48.987 215.82C49.9783 215.242 50.3087 214.005 50.4739 212.85C50.9696 209.632 51.2174 206.332 51.7131 203.115L45.0217 210.292Z" fill="#263238"/>
<path d="M70.7957 193.38C70.7957 193.38 70.3826 193.298 69.5565 193.298C68.7305 193.298 67.5739 193.38 66.1696 193.875C65.5087 194.123 64.7652 194.453 64.0218 194.948C63.2783 195.443 62.6174 196.02 61.8739 196.598C60.387 197.835 58.9 199.403 57.5783 201.218C56.9174 202.125 56.3392 203.033 55.7609 203.94C55.1826 204.765 54.4392 205.59 53.6957 206.25C52.2087 207.57 50.7218 208.395 49.4 209.138C48.0783 209.798 47.0044 210.293 46.2609 210.623C45.9305 210.788 45.6 210.87 45.3522 210.953C45.187 211.035 45.0218 211.035 45.0218 211.035C45.0218 211.035 45.1044 210.953 45.2696 210.87C45.5174 210.788 45.7652 210.623 46.0957 210.458C46.8391 210.128 47.9131 209.55 49.1522 208.89C50.3913 208.148 51.9609 207.24 53.3652 206.003C54.1087 205.343 54.7696 204.6 55.3478 203.775C55.9261 202.95 56.5044 201.96 57.1652 201.053C58.487 199.238 59.9739 197.67 61.4609 196.433C62.2044 195.773 62.9478 195.278 63.6913 194.783C64.4348 194.288 65.1783 193.958 65.8391 193.71C67.2435 193.215 68.4826 193.133 69.3087 193.133C69.7218 193.133 70.0522 193.215 70.2174 193.298C70.6305 193.298 70.7957 193.298 70.7957 193.38Z" fill="#455A64"/>
<path d="M44.8565 207.158C44.8565 207.158 44.6913 207.24 44.4435 207.488C44.1131 207.653 43.7 207.983 43.1217 208.23C42.9565 208.313 42.8739 208.395 42.7087 208.478C42.5435 208.56 42.3783 208.643 42.1304 208.643C42.0478 208.643 41.8826 208.643 41.8 208.56C41.7174 208.478 41.6348 208.395 41.6348 208.23C41.6348 207.983 41.8 207.735 41.8826 207.57C42.3783 206.828 42.8739 206.003 43.3696 205.178L43.5348 205.343C43.0391 205.673 42.4609 206.003 41.8826 206.168C41.3044 206.333 40.6435 206.415 40.0652 206.415C39.9 206.415 39.7348 206.415 39.5696 206.333C39.4044 206.25 39.2391 206.168 39.1565 206.003C39.0739 205.838 39.1565 205.59 39.2391 205.508C39.3217 205.343 39.4044 205.26 39.5696 205.178C40.3131 204.435 40.8913 203.693 41.3044 203.033C42.1304 201.63 42.3783 200.64 42.3783 200.723C42.3783 200.723 42.3783 200.97 42.2131 201.383C42.0478 201.795 41.8826 202.455 41.4696 203.115C41.0565 203.858 40.4783 204.6 39.7348 205.425C39.5696 205.59 39.3217 205.838 39.4044 206.003C39.487 206.168 39.7348 206.25 39.9826 206.25C40.5609 206.25 41.1391 206.25 41.7174 206.003C42.2957 205.838 42.7913 205.59 43.287 205.26L43.8652 204.848L43.4522 205.508C42.8739 206.333 42.3783 207.158 41.9652 207.9C41.8826 208.065 41.7174 208.23 41.7174 208.395C41.7174 208.56 41.8826 208.643 42.0478 208.643C42.3783 208.643 42.7087 208.395 42.9565 208.23C43.4522 207.983 43.9478 207.735 44.2783 207.57C44.6913 207.24 44.8565 207.158 44.8565 207.158Z" fill="#455A64"/>
<path d="M59.8913 220.688C60.0565 219.945 60.8826 219.285 61.6261 219.368C62.2044 219.45 62.7 219.78 63.0304 220.358C63.2783 220.853 63.2783 221.513 63.113 222.09V222.173C62.6174 222.75 61.6261 222.998 60.9652 222.668C60.1391 222.338 59.7261 221.513 59.8913 220.688Z" fill="#EB996E"/>
<path d="M64.0217 222.255C64.0217 222.09 62.7 222.09 61.7087 221.017C60.7174 219.945 60.8 218.542 60.6348 218.542C60.5522 218.542 60.387 218.872 60.387 219.45C60.387 220.027 60.6348 220.852 61.213 221.512C61.7913 222.172 62.6174 222.42 63.1131 222.42C63.6913 222.502 64.0217 222.337 64.0217 222.255Z" fill="#263238"/>
<path d="M78.8913 292.875L78.3131 296.422L78.8913 298.403C78.8913 298.403 84.8391 305.993 86.7391 311.52C88.6391 317.048 88.8044 331.815 88.8044 331.815H20.9C20.9 331.815 23.2957 310.035 31.8044 303.105V301.537L29.6565 298.403C29.6565 298.403 28.9131 296.01 32.0522 296.34C33.2913 296.505 78.8913 292.875 78.8913 292.875Z" fill="#2D6CFF"/>
<path d="M31.4739 301.043H31.5565C31.6391 301.043 31.8044 301.043 31.887 301.043C32.2174 301.043 32.7131 301.043 33.2913 301.043C34.4478 301.043 36.1826 300.96 38.3304 301.043C40.4783 301.043 43.0391 301.125 45.8478 301.125C48.6565 301.208 51.7957 301.208 55.1 301.208C58.4044 301.125 61.4609 300.96 64.2696 300.63C67.0783 300.3 69.6391 299.805 71.7044 299.31C73.7696 298.815 75.4217 298.238 76.5783 297.825C77.1565 297.66 77.5696 297.413 77.8174 297.33C77.9826 297.248 78.0652 297.248 78.1478 297.165C78.2304 297.165 78.2304 297.083 78.2304 297.083H78.1478C78.0652 297.083 77.9826 297.165 77.8174 297.165C77.487 297.248 77.0739 297.413 76.4957 297.66C75.3391 298.073 73.687 298.568 71.6217 299.063C69.5565 299.558 67.0783 300.053 64.2696 300.383C61.4609 300.713 58.3217 300.878 55.1 300.96C51.8783 301.043 48.7391 300.96 45.9304 300.96C43.1217 300.878 40.5609 300.878 38.4131 300.878C36.2652 300.878 34.5304 300.96 33.3739 300.96C32.7957 300.96 32.3 301.043 31.9696 301.043C31.8044 301.043 31.7217 301.043 31.6391 301.043C31.4739 301.043 31.4739 301.043 31.4739 301.043Z" fill="#263238"/>
<path d="M31.4739 304.178H31.5565C31.6391 304.178 31.8044 304.178 31.887 304.178C32.2174 304.178 32.7131 304.178 33.2913 304.178C34.4478 304.178 36.1826 304.095 38.3304 304.178C40.4783 304.178 43.0391 304.26 45.8478 304.26C48.6565 304.343 51.7957 304.343 55.1 304.343C58.4044 304.26 61.4609 304.095 64.2696 303.765C67.0783 303.435 69.6391 302.94 71.7044 302.445C73.7696 301.95 75.4217 301.373 76.5783 300.96C77.1565 300.795 77.5696 300.548 77.8174 300.465C77.9826 300.383 78.0652 300.383 78.1478 300.3C78.2304 300.3 78.2304 300.218 78.2304 300.218H78.1478C78.0652 300.218 77.9826 300.3 77.8174 300.3C77.487 300.383 77.0739 300.548 76.4957 300.795C75.3391 301.208 73.687 301.703 71.6217 302.198C69.5565 302.693 67.0783 303.188 64.2696 303.518C61.4609 303.848 58.3217 304.013 55.1 304.095C51.8783 304.178 48.7391 304.095 45.9304 304.095C43.1217 304.013 40.5609 304.013 38.4131 304.013C36.2652 304.013 34.5304 304.095 33.3739 304.095C32.7957 304.095 32.3 304.178 31.9696 304.178C31.8044 304.178 31.7217 304.178 31.6391 304.178C31.4739 304.178 31.4739 304.178 31.4739 304.178Z" fill="#263238"/>
<path d="M76 307.89C76 307.89 75.9174 307.478 75.7522 306.9C75.5044 306.323 75.1739 305.498 74.6783 304.755C74.1826 303.93 73.6044 303.27 73.1913 302.858C72.7783 302.445 72.4478 302.198 72.4478 302.198C72.3652 302.28 73.5218 303.353 74.5131 304.92C75.4218 306.405 75.9174 307.89 76 307.89Z" fill="#263238"/>
<path d="M73.6043 312.262C73.6043 312.262 73.6043 312.097 73.6043 311.85C73.6043 311.602 73.6043 311.19 73.5217 310.777C73.4391 309.87 73.1913 308.632 72.7783 307.312C72.3652 305.992 71.8696 304.837 71.4565 304.012C71.0435 303.187 70.713 302.692 70.713 302.692C70.713 302.692 70.9609 303.187 71.2913 304.012C71.6217 304.837 72.1174 305.992 72.5304 307.312C72.9435 308.632 73.1913 309.87 73.3565 310.777C73.5217 311.685 73.5217 312.262 73.6043 312.262Z" fill="#263238"/>
<path d="M71.9522 295.103C71.9522 295.103 71.8696 295.35 71.787 295.763C71.7044 296.175 71.5391 296.753 71.3739 297.33C70.9609 298.485 70.3826 299.393 70.4652 299.475C70.5478 299.475 71.2087 298.65 71.6218 297.413C71.8696 296.835 71.9522 296.258 72.0348 295.763C72.0348 295.35 72.0348 295.103 71.9522 295.103Z" fill="#263238"/>
<path d="M69.9696 296.505C69.887 296.505 69.6391 297.165 69.4739 298.072C69.2261 298.98 69.1435 299.64 69.2261 299.722C69.3087 299.722 69.5565 299.062 69.7218 298.155C69.887 297.247 70.0522 296.505 69.9696 296.505Z" fill="#263238"/>
<path d="M57.8261 296.01C57.7435 296.01 57.7435 297.083 57.7435 298.403C57.7435 299.723 57.8261 300.795 57.8261 300.795C57.9087 300.795 57.9087 299.723 57.9087 298.403C57.9913 297.083 57.9087 296.01 57.8261 296.01Z" fill="#263238"/>
<path d="M56.3391 297.248C56.2565 297.248 56.0913 298.073 56.0913 299.063C56.0913 300.135 56.3391 300.878 56.4217 300.878C56.5044 300.878 56.3391 300.053 56.3391 299.063C56.3391 298.073 56.4217 297.248 56.3391 297.248Z" fill="#263238"/>
<path d="M52.2087 308.468C52.2913 308.468 52.3739 307.56 52.6218 306.405C52.8696 305.25 53.0348 304.343 53.0348 304.343C52.9522 304.343 52.6218 305.25 52.3739 306.405C52.1261 307.478 52.1261 308.468 52.2087 308.468Z" fill="#263238"/>
<path d="M92.9348 261.277C93.1 260.865 88.0609 246.592 85.087 244.447C82.1131 242.302 68.8131 239.167 68.8131 239.167C68.8131 239.167 63.1957 244.695 55.6783 243.54C48.1609 242.385 42.3783 237.105 42.3783 237.105C42.3783 237.105 28.087 239.002 25.6913 240.735C23.2957 242.467 16.687 258.06 16.687 258.06L28.3348 267.712L29.3261 276.457C29.3261 276.457 28.7478 294.69 29.987 296.587C31.2261 298.485 78.7261 293.7 78.7261 293.7C78.7261 293.7 81.1217 293.287 79.3044 288.997C77.4044 284.707 76.0826 281.82 76.0826 281.82C76.0826 281.82 79.3044 278.025 79.8 271.425C80.3783 264.825 81.7 264.082 81.7 264.082L92.9348 261.277Z" fill="#FF1E00"/>
<path d="M29.3261 276.128C29.4087 276.128 28.6652 270.188 27.7565 262.845C26.8478 255.503 26.0218 249.645 25.9391 249.645C25.8565 249.645 26.6 255.585 27.5087 262.928C28.4174 270.188 29.2435 276.128 29.3261 276.128Z" fill="#263238"/>
<path d="M80.2131 266.475C80.2957 266.475 81.2044 264.33 82.1957 261.69C83.2696 259.05 84.0131 256.823 83.9305 256.823C83.8479 256.823 82.9392 258.968 81.9479 261.608C80.9565 264.33 80.1305 266.475 80.2131 266.475Z" fill="#263238"/>
<g opacity="0.3">
<path d="M65.1783 274.065C65.4261 272.827 65.8391 271.59 66.6652 270.682C67.7391 269.445 69.5565 268.867 71.2087 268.867C72.8609 268.867 74.5131 269.362 76.1652 269.857L79.2218 274.56C79.0565 275.137 78.5609 275.55 77.9826 275.797C77.4044 276.045 76.8261 276.045 76.2478 276.127C73.1087 276.375 69.9696 276.457 66.8305 276.54C66.4174 276.54 66.0044 276.54 65.6739 276.292C64.9305 275.88 65.0131 274.89 65.1783 274.065Z" fill="black"/>
</g>
<path d="M85.8304 252.368C85.8304 252.368 85.7478 252.533 85.5826 252.863C85.4174 253.193 85.2522 253.688 85.0044 254.265C84.5087 255.42 83.9304 257.07 83.2696 258.885C82.6087 260.7 82.113 262.433 81.7 263.588C81.5348 264.165 81.3696 264.66 81.287 265.073C81.2044 265.403 81.1217 265.65 81.2044 265.65C81.2044 265.65 81.287 265.485 81.3696 265.155C81.5348 264.743 81.7 264.33 81.8652 263.753C82.2783 262.515 82.8565 260.865 83.4348 259.05C84.0957 257.235 84.6739 255.585 85.087 254.348C85.2522 253.77 85.5 253.275 85.5826 252.945C85.8304 252.615 85.8304 252.368 85.8304 252.368Z" fill="#263238"/>
<path d="M85.9131 253.935L80.6261 273.323C80.4609 273.983 79.8826 274.395 79.1391 274.395H67.5739C66.5826 274.395 65.8391 273.57 66.087 272.663L70.7131 253.275C70.8783 252.615 71.4565 252.12 72.2 252.12H84.3435C85.4174 252.12 86.1609 253.028 85.9131 253.935Z" fill="#263238"/>
<path d="M81.8652 257.483C81.8652 257.483 83.2696 256.823 84.3435 257.483C85.4174 258.143 87.1522 261.03 87.1522 261.03L88.2261 265.65L87.4826 271.92L87.1522 274.808L80.1305 275.633V273.323L72.1174 267.3C72.1174 267.3 69.3087 266.558 69.4739 265.65C69.7218 264.825 70.0522 264.248 70.8783 264.413C71.7044 264.578 80.2957 266.805 80.2957 266.805C80.2957 266.805 81.7 267.135 81.6174 266.723C81.5348 266.393 77.5696 264.495 76.9087 264.083C76.2478 263.67 73.1913 262.928 73.6044 261.525C73.9348 260.123 75.0913 260.04 75.9174 260.288C76.7435 260.618 82.8565 262.845 82.8565 262.845L84.0131 263.175L83.8478 261.36L82.6087 259.71C82.6087 259.71 81.8652 259.958 81.5348 259.133C81.2044 258.143 81.8652 257.483 81.8652 257.483Z" fill="#FFBE9D"/>
<path d="M82.7739 262.763C82.7739 262.845 83.5174 263.175 84.5087 263.423C85.5 263.753 86.2435 263.918 86.3261 263.918C86.3261 263.835 85.5826 263.505 84.5913 263.258C83.6 262.845 82.8565 262.68 82.7739 262.763Z" fill="#EB996E"/>
<path d="M81.2043 266.888C81.2043 266.97 81.8652 267.218 82.7739 267.465C83.6826 267.713 84.4261 267.878 84.4261 267.795C84.4261 267.713 83.7652 267.465 82.8565 267.218C82.0304 266.97 81.287 266.805 81.2043 266.888Z" fill="#EB996E"/>
<path d="M72.6131 267.3C72.6131 267.3 72.7783 267.383 73.0261 267.548C73.2739 267.713 73.687 267.878 74.1826 268.125C75.1739 268.538 76.5783 269.115 78.1478 269.693C79.7174 270.188 81.2044 270.6 82.2783 270.848C82.7739 270.93 83.2696 271.013 83.5174 271.095C83.8478 271.178 84.0131 271.178 84.0131 271.178C84.0131 271.178 83.3522 271.013 82.3609 270.683C81.287 270.435 79.8826 270.023 78.3131 269.528C76.7435 269.033 75.3392 268.455 74.3478 268.043C73.2739 267.548 72.6131 267.3 72.6131 267.3Z" fill="#EB996E"/>
<path d="M85.3348 270.765C85.3348 270.848 85.8305 270.6 85.9131 270.022C86.0783 269.445 85.8305 269.033 85.7479 269.115C85.6652 269.115 85.8305 269.527 85.6652 270.022C85.5826 270.435 85.3348 270.683 85.3348 270.765Z" fill="#EB996E"/>
<path d="M86.7391 267.053C86.7391 267.053 86.9044 267.053 86.987 266.97C87.1522 266.888 87.3174 266.64 87.4 266.393C87.4826 266.145 87.4826 265.815 87.4 265.65C87.3174 265.485 87.2348 265.403 87.2348 265.403C87.1522 265.403 87.3174 265.815 87.1522 266.31C87.0696 266.805 86.7391 267.053 86.7391 267.053Z" fill="#EB996E"/>
<path d="M87.5652 262.598C87.5652 262.598 87.5652 262.68 87.5652 262.845C87.5652 263.01 87.6478 263.258 87.6478 263.505C87.7304 264.083 87.8957 264.908 88.1435 265.898C87.8131 268.125 87.4 271.26 86.987 274.808C87.0696 275.055 87.1522 275.303 87.2348 275.55C88.4739 278.933 88.7218 282.315 88.6391 284.625C88.6391 285.78 88.4739 286.77 88.3913 287.43C88.3087 287.76 88.3087 288.008 88.3087 288.173C88.3087 288.338 88.3087 288.42 88.3087 288.42C88.3087 288.42 88.3087 288.338 88.3913 288.173C88.3913 288.008 88.4739 287.76 88.5565 287.43C88.6391 286.77 88.8044 285.78 88.887 284.625C88.9696 282.233 88.8044 278.85 87.4826 275.468C87.4 275.22 87.3174 274.973 87.2348 274.725V274.808C87.7304 271.26 88.0609 268.043 88.3087 265.815C88.0609 264.825 87.8957 264 87.7304 263.423C87.6478 263.175 87.6478 262.928 87.5652 262.763C87.5652 262.68 87.5652 262.598 87.5652 262.598Z" fill="#EB996E"/>
<path d="M79.0565 272.58C79.0565 272.663 79.7174 273.24 80.6261 273.653C81.6174 274.148 82.4435 274.313 82.4435 274.23C82.4435 274.148 81.6174 273.9 80.7087 273.405C79.8 272.993 79.1391 272.498 79.0565 272.58Z" fill="#EB996E"/>
<path d="M34.613 282.397C34.613 282.397 32.7956 282.892 32.6304 284.047C32.4652 285.202 33.9522 305.827 33.9522 305.827H32.2174C32.2174 305.827 31.5565 285.45 31.5565 283.965C31.5565 282.48 32.3 282.397 32.5478 282.315C33.3739 281.985 34.613 282.397 34.613 282.397Z" fill="#263238"/>
<path d="M35.5217 282.397L27.0957 282.727L28.7478 272.58L28.1696 267.712L17.0174 258.472C17.0174 258.472 13.1348 280.995 12.8044 283.635C12.3913 286.77 12.9696 290.895 14.5391 292.38C15.8609 293.617 25.1957 292.38 28.7478 292.38C30.7304 292.38 35.5217 292.38 35.5217 292.38L37.1739 284.625L35.5217 282.397Z" fill="#FFBE9D"/>
<path d="M14.5391 282.727C14.5391 282.81 15.1174 282.315 16.2739 281.82C17.3478 281.325 19 280.912 20.8174 280.995C21.7261 281.077 22.5522 281.242 23.2957 281.49C24.0391 281.737 24.7 282.067 25.1957 282.315C25.7739 282.562 26.2696 282.645 26.6 282.645C26.9304 282.645 27.0957 282.645 27.0957 282.645C27.0957 282.645 26.3522 282.645 25.2783 282.15C24.7 281.902 24.1217 281.572 23.3783 281.242C22.6348 280.912 21.7261 280.747 20.8174 280.665C18.9174 280.5 17.2652 280.995 16.1913 281.572C15.6131 281.82 15.2 282.15 14.9522 282.315C14.7044 282.562 14.5391 282.727 14.5391 282.727Z" fill="#EB996E"/>
<path d="M44.1957 301.042C44.5261 301.455 48.0783 331.98 48.0783 331.98L11.2348 331.815L17.1 301.125L44.1957 301.042Z" fill="#FF1E00"/>
<path d="M38.0826 331.898C38.1652 331.898 38.4956 325.05 38.9087 316.553C39.3217 308.055 39.5696 301.208 39.4869 301.208C39.4043 301.208 39.0739 308.055 38.6609 316.553C38.2478 324.968 38 331.898 38.0826 331.898Z" fill="#263238"/>
<path d="M53.0348 282.892C53.0348 282.892 50.6391 282.48 50.0609 282.232C49.4826 281.985 48.7391 281.49 48.7391 281.49L44.0304 281.077L35.5217 282.397C35.5217 282.397 34.1174 283.387 34.2826 286.522C34.4478 289.657 35.6044 292.627 35.6044 292.627C35.6044 292.627 39.4044 295.68 40.3957 295.927C41.387 296.092 47.1696 295.762 47.7478 295.35C48.3261 294.937 48.5739 294.36 48.5739 294.36C48.5739 294.36 49.5652 293.947 49.4 292.627C49.4 292.627 51.3826 290.07 51.6304 288.997C51.8783 287.925 51.5478 287.677 51.5478 287.677C51.5478 287.677 52.1261 286.192 51.713 285.697C51.3 285.202 50.3913 285.12 49.8957 285.615C49.4826 286.11 46.5913 285.78 46.5913 285.78L44.1131 284.13C44.1131 284.13 46.6739 284.79 47.9957 284.872C49.4826 284.872 53.5304 285.78 53.0348 282.892Z" fill="#FFBE9D"/>
<path d="M43.287 288.915C43.287 288.915 43.7826 289.08 44.6087 289.327C45.0217 289.492 45.5174 289.657 46.013 289.822C46.5913 289.987 47.1696 290.152 47.8304 290.152C48.4913 290.152 49.1522 289.987 49.6478 289.657C50.1435 289.327 50.4739 288.997 50.8043 288.667C51.0522 288.337 51.3 288.007 51.3826 287.842C51.5478 287.677 51.5478 287.512 51.5478 287.512C51.5478 287.512 51.2174 287.925 50.6391 288.585C50.3913 288.915 49.9783 289.245 49.4826 289.492C48.987 289.74 48.4087 289.905 47.7478 289.905C46.4261 289.905 45.3522 289.41 44.5261 289.162C43.7826 288.915 43.287 288.915 43.287 288.915Z" fill="#EB996E"/>
<path d="M41.5522 286.688C41.5522 286.688 41.4696 286.77 41.387 286.935C41.3044 287.1 41.3044 287.348 41.387 287.678C41.4696 287.925 41.6348 288.172 41.8 288.255C41.9652 288.337 42.0478 288.338 42.0478 288.338C42.0478 288.255 41.7174 288.09 41.5522 287.595C41.4696 287.1 41.6348 286.688 41.5522 286.688Z" fill="#EB996E"/>
<path d="M41.7174 292.297C41.7174 292.297 42.1305 292.38 42.8739 292.545C43.6174 292.71 44.6087 292.792 45.7652 292.875C46.3435 292.957 46.8391 293.04 47.3348 292.957C47.8304 292.957 48.3261 292.875 48.6565 292.71C49.4 292.462 49.6478 291.967 49.6478 291.967C49.6478 291.967 49.3174 292.297 48.5739 292.545C48.2435 292.627 47.8304 292.71 47.3348 292.71C46.8391 292.71 46.3435 292.627 45.7652 292.545C44.6087 292.462 43.6174 292.297 42.8739 292.297C42.2131 292.297 41.7174 292.215 41.7174 292.297Z" fill="#EB996E"/>
<path d="M39.5696 290.235C39.5696 290.235 39.487 290.317 39.4044 290.565C39.3218 290.812 39.3218 291.06 39.4044 291.39C39.487 291.72 39.6522 291.967 39.8174 292.132C39.9826 292.297 40.1478 292.297 40.1478 292.297C40.2304 292.215 39.8174 291.885 39.6522 291.307C39.4044 290.73 39.5696 290.317 39.5696 290.235Z" fill="#EB996E"/>
<path d="M40.8913 294.855C40.8913 294.855 41.3044 294.937 42.0478 295.02C42.7087 295.102 43.7 295.102 44.7739 295.02C45.8478 294.937 46.8392 294.772 47.5 294.69C48.1609 294.525 48.5739 294.442 48.5739 294.36C48.5739 294.36 48.1609 294.36 47.4174 294.525C46.7565 294.607 45.7652 294.772 44.6913 294.772C43.6174 294.855 42.6261 294.855 41.9652 294.855C41.3044 294.855 40.8913 294.855 40.8913 294.855Z" fill="#EB996E"/>
<path d="M32.8783 282.232C32.8783 282.232 31.2261 283.47 30.8957 284.212C30.5652 284.955 27.2609 301.042 27.2609 301.042H25.8565C25.8565 301.042 29.2435 283.635 30.0696 282.975C30.4 282.727 30.7304 282.48 31.0609 282.315C31.5565 282.067 32.3 281.985 32.8783 282.232Z" fill="#263238"/>
<path d="M70.4652 239.663C70.4652 236.198 73.2739 233.31 76.8261 233.31H115.404C118.874 233.31 121.765 236.115 121.765 239.663C121.765 243.21 118.957 246.015 115.404 246.015H92.3565C90.2087 248.078 86.4913 250.883 86.4913 250.883V245.768L76.3305 245.933C72.8609 245.933 70.4652 243.045 70.4652 239.663Z" fill="white"/>
<path d="M70.4652 239.663C70.4652 239.663 70.4652 239.745 70.4652 239.993C70.4652 240.24 70.4652 240.57 70.5478 240.983C70.6305 241.395 70.7957 241.973 71.0435 242.55C71.3739 243.128 71.787 243.788 72.3652 244.365C72.9435 244.943 73.8522 245.438 74.8435 245.768C75.0913 245.85 75.3391 245.85 75.587 245.933C75.8348 245.933 76.1652 246.015 76.4131 246.015C76.9913 246.015 77.5696 246.015 78.1478 246.015C80.5435 245.933 83.3522 245.933 86.3261 245.85L86.2435 245.768C86.2435 247.418 86.2435 249.068 86.2435 250.883V251.048L86.4087 250.965C88.3087 249.48 90.2913 247.913 92.2739 246.098H92.1913C96.487 246.098 101.196 246.098 106.152 246.098C108.63 246.098 111.191 246.098 113.752 246.098C114.413 246.098 115.074 246.098 115.735 246.098C116.396 246.015 117.057 245.933 117.717 245.603C118.957 245.108 120.03 244.2 120.774 243.045C121.104 242.55 121.27 242.055 121.435 241.56C121.6 241.065 121.683 240.488 121.683 239.993C121.683 239.415 121.683 238.92 121.6 238.425C121.517 237.93 121.352 237.353 121.104 236.94C120.196 235.043 118.296 233.64 116.23 233.393C115.735 233.31 115.239 233.31 114.743 233.31C114.248 233.31 113.752 233.31 113.257 233.31C112.265 233.31 111.274 233.31 110.283 233.31C108.3 233.31 106.4 233.31 104.583 233.31C97.1478 233.31 90.4565 233.31 84.8391 233.31C82.0304 233.31 79.4696 233.31 77.2391 233.31C76.6609 233.31 76.1652 233.31 75.587 233.393C75.0913 233.475 74.5957 233.64 74.1 233.805C73.1913 234.135 72.5304 234.713 71.9522 235.29C71.3739 235.868 71.0435 236.445 70.7957 237.023C70.6304 237.27 70.5478 237.6 70.4652 237.765C70.3826 238.013 70.3826 238.26 70.3 238.425C70.2174 238.838 70.2174 239.168 70.2174 239.333C70.4652 239.58 70.4652 239.663 70.4652 239.663C70.4652 239.663 70.4652 239.58 70.4652 239.333C70.4652 239.085 70.5478 238.838 70.5478 238.425C70.6305 238.26 70.6304 238.013 70.7131 237.765C70.7957 237.518 70.8783 237.27 71.0435 237.023C71.2913 236.445 71.7044 235.868 72.2 235.373C72.7783 234.795 73.4391 234.3 74.3478 233.97C74.7609 233.805 75.2565 233.64 75.7522 233.558C76.2478 233.475 76.8261 233.475 77.3218 233.475C79.5522 233.475 82.1131 233.475 84.9218 233.475C90.5391 233.475 97.2304 233.475 104.665 233.475C106.483 233.475 108.383 233.475 110.365 233.475C111.357 233.475 112.348 233.475 113.339 233.475C113.835 233.475 114.33 233.475 114.826 233.475C115.322 233.475 115.817 233.475 116.313 233.558C118.296 233.805 120.113 235.125 120.939 237.023C121.187 237.518 121.352 238.013 121.435 238.508C121.517 239.003 121.6 239.498 121.517 240.075C121.517 240.57 121.352 241.065 121.27 241.643C121.104 242.138 120.939 242.633 120.609 243.045C119.948 244.2 118.874 245.025 117.635 245.52C117.057 245.768 116.396 245.933 115.735 245.933C115.074 246.015 114.413 245.933 113.752 245.933C111.191 245.933 108.63 245.933 106.152 245.933C101.196 245.933 96.487 245.933 92.1913 245.933H92.1087C90.1261 247.748 88.1435 249.398 86.2435 250.8L86.4087 250.883C86.4087 249.068 86.4087 247.335 86.4087 245.768V245.685H86.3261C83.2696 245.768 80.5435 245.85 78.1478 245.85C76.9087 245.85 75.8348 246.015 74.8435 245.685C73.8522 245.438 73.0261 244.943 72.4478 244.365C71.8696 243.788 71.3739 243.128 71.1261 242.55C70.8783 241.973 70.7131 241.395 70.6305 240.983C70.5478 240.57 70.4652 240.24 70.4652 239.993C70.4652 239.828 70.4652 239.663 70.4652 239.663Z" fill="#263238"/>
<path d="M77.3907 242.793C77.2528 242.793 77.1149 242.793 76.839 242.793C75.8736 242.654 74.9082 242.101 74.2185 241.27C73.5289 240.439 73.2531 239.469 73.391 238.362C73.5289 237.392 74.0806 236.423 74.9082 235.73C75.7357 235.038 76.7011 234.761 77.8045 234.9C78.7699 235.038 79.7354 235.592 80.425 236.423C81.1146 237.254 81.3904 238.223 81.2525 239.331C80.9767 241.408 79.3216 242.793 77.3907 242.793ZM77.3907 235.869C76.7011 235.869 76.0115 236.146 75.4598 236.561C74.7702 237.115 74.3565 237.808 74.2185 238.639C74.0806 239.469 74.3565 240.3 74.7702 240.993C75.3219 241.685 76.0115 242.101 76.839 242.239C78.4941 242.516 80.1491 241.27 80.287 239.608C80.425 238.777 80.1491 237.946 79.7354 237.254C79.1837 236.561 78.4941 236.146 77.6666 236.007C77.6666 235.869 77.5286 235.869 77.3907 235.869Z" fill="#263238"/>
<path d="M82.8793 244.202C82.7374 244.202 82.7374 244.202 82.5955 244.06L80.0411 241.935C79.8992 241.793 79.8992 241.509 80.0411 241.368C80.183 241.226 80.4669 241.226 80.6088 241.368L83.1631 243.494C83.305 243.635 83.305 243.919 83.1631 244.06C83.1631 244.202 83.0212 244.202 82.8793 244.202Z" fill="#263238"/>
</g>
<defs>
<clipPath id="clip0_118_499">
<rect width="342" height="330" fill="white"/>
</clipPath>
</defs>
</svg>
